G04 #@! TF.GenerationSoftware,KiCad,Pcbnew,5.1.2-f72e74a~84~ubuntu18.04.1*
G04 #@! TF.CreationDate,2020-02-26T21:12:00+03:00*
G04 #@! TF.ProjectId,connection_board,636f6e6e-6563-4746-996f-6e5f626f6172,rev?*
G04 #@! TF.SameCoordinates,Original*
G04 #@! TF.FileFunction,Soldermask,Top*
G04 #@! TF.FilePolarity,Negative*
%FSLAX46Y46*%
G04 Gerber Fmt 4.6, Leading zero omitted, Abs format (unit mm)*
G04 Created by KiCad (PCBNEW 5.1.2-f72e74a~84~ubuntu18.04.1) date 2020-02-26 21:12:00*
%MOMM*%
%LPD*%
G04 APERTURE LIST*
%ADD10C,0.100000*%
G04 APERTURE END LIST*
D10*
G36*
X131351000Y-94851000D02*
G01*
X129649000Y-94851000D01*
X129649000Y-93149000D01*
X131351000Y-93149000D01*
X131351000Y-94851000D01*
X131351000Y-94851000D01*
G37*
G36*
X100166823Y-93161313D02*
G01*
X100327242Y-93209976D01*
X100459906Y-93280886D01*
X100475078Y-93288996D01*
X100604659Y-93395341D01*
X100711004Y-93524922D01*
X100711005Y-93524924D01*
X100790024Y-93672758D01*
X100838687Y-93833177D01*
X100855117Y-94000000D01*
X100838687Y-94166823D01*
X100790024Y-94327242D01*
X100719114Y-94459906D01*
X100711004Y-94475078D01*
X100604659Y-94604659D01*
X100475078Y-94711004D01*
X100475076Y-94711005D01*
X100327242Y-94790024D01*
X100166823Y-94838687D01*
X100041804Y-94851000D01*
X99958196Y-94851000D01*
X99833177Y-94838687D01*
X99672758Y-94790024D01*
X99524924Y-94711005D01*
X99524922Y-94711004D01*
X99395341Y-94604659D01*
X99288996Y-94475078D01*
X99280886Y-94459906D01*
X99209976Y-94327242D01*
X99161313Y-94166823D01*
X99144883Y-94000000D01*
X99161313Y-93833177D01*
X99209976Y-93672758D01*
X99288995Y-93524924D01*
X99288996Y-93524922D01*
X99395341Y-93395341D01*
X99524922Y-93288996D01*
X99540094Y-93280886D01*
X99672758Y-93209976D01*
X99833177Y-93161313D01*
X99958196Y-93149000D01*
X100041804Y-93149000D01*
X100166823Y-93161313D01*
X100166823Y-93161313D01*
G37*
G36*
X105851000Y-94851000D02*
G01*
X104149000Y-94851000D01*
X104149000Y-93149000D01*
X105851000Y-93149000D01*
X105851000Y-94851000D01*
X105851000Y-94851000D01*
G37*
G36*
X81951000Y-94851000D02*
G01*
X80249000Y-94851000D01*
X80249000Y-93149000D01*
X81951000Y-93149000D01*
X81951000Y-94851000D01*
X81951000Y-94851000D01*
G37*
G36*
X76266823Y-93161313D02*
G01*
X76427242Y-93209976D01*
X76559906Y-93280886D01*
X76575078Y-93288996D01*
X76704659Y-93395341D01*
X76811004Y-93524922D01*
X76811005Y-93524924D01*
X76890024Y-93672758D01*
X76938687Y-93833177D01*
X76955117Y-94000000D01*
X76938687Y-94166823D01*
X76890024Y-94327242D01*
X76819114Y-94459906D01*
X76811004Y-94475078D01*
X76704659Y-94604659D01*
X76575078Y-94711004D01*
X76575076Y-94711005D01*
X76427242Y-94790024D01*
X76266823Y-94838687D01*
X76141804Y-94851000D01*
X76058196Y-94851000D01*
X75933177Y-94838687D01*
X75772758Y-94790024D01*
X75624924Y-94711005D01*
X75624922Y-94711004D01*
X75495341Y-94604659D01*
X75388996Y-94475078D01*
X75380886Y-94459906D01*
X75309976Y-94327242D01*
X75261313Y-94166823D01*
X75244883Y-94000000D01*
X75261313Y-93833177D01*
X75309976Y-93672758D01*
X75388995Y-93524924D01*
X75388996Y-93524922D01*
X75495341Y-93395341D01*
X75624922Y-93288996D01*
X75640094Y-93280886D01*
X75772758Y-93209976D01*
X75933177Y-93161313D01*
X76058196Y-93149000D01*
X76141804Y-93149000D01*
X76266823Y-93161313D01*
X76266823Y-93161313D01*
G37*
G36*
X125666823Y-93161313D02*
G01*
X125827242Y-93209976D01*
X125959906Y-93280886D01*
X125975078Y-93288996D01*
X126104659Y-93395341D01*
X126211004Y-93524922D01*
X126211005Y-93524924D01*
X126290024Y-93672758D01*
X126338687Y-93833177D01*
X126355117Y-94000000D01*
X126338687Y-94166823D01*
X126290024Y-94327242D01*
X126219114Y-94459906D01*
X126211004Y-94475078D01*
X126104659Y-94604659D01*
X125975078Y-94711004D01*
X125975076Y-94711005D01*
X125827242Y-94790024D01*
X125666823Y-94838687D01*
X125541804Y-94851000D01*
X125458196Y-94851000D01*
X125333177Y-94838687D01*
X125172758Y-94790024D01*
X125024924Y-94711005D01*
X125024922Y-94711004D01*
X124895341Y-94604659D01*
X124788996Y-94475078D01*
X124780886Y-94459906D01*
X124709976Y-94327242D01*
X124661313Y-94166823D01*
X124644883Y-94000000D01*
X124661313Y-93833177D01*
X124709976Y-93672758D01*
X124788995Y-93524924D01*
X124788996Y-93524922D01*
X124895341Y-93395341D01*
X125024922Y-93288996D01*
X125040094Y-93280886D01*
X125172758Y-93209976D01*
X125333177Y-93161313D01*
X125458196Y-93149000D01*
X125541804Y-93149000D01*
X125666823Y-93161313D01*
X125666823Y-93161313D01*
G37*
G36*
X100166823Y-91161313D02*
G01*
X100327242Y-91209976D01*
X100459906Y-91280886D01*
X100475078Y-91288996D01*
X100604659Y-91395341D01*
X100711004Y-91524922D01*
X100711005Y-91524924D01*
X100790024Y-91672758D01*
X100838687Y-91833177D01*
X100855117Y-92000000D01*
X100838687Y-92166823D01*
X100790024Y-92327242D01*
X100719114Y-92459906D01*
X100711004Y-92475078D01*
X100604659Y-92604659D01*
X100475078Y-92711004D01*
X100475076Y-92711005D01*
X100327242Y-92790024D01*
X100166823Y-92838687D01*
X100041804Y-92851000D01*
X99958196Y-92851000D01*
X99833177Y-92838687D01*
X99672758Y-92790024D01*
X99524924Y-92711005D01*
X99524922Y-92711004D01*
X99395341Y-92604659D01*
X99288996Y-92475078D01*
X99280886Y-92459906D01*
X99209976Y-92327242D01*
X99161313Y-92166823D01*
X99144883Y-92000000D01*
X99161313Y-91833177D01*
X99209976Y-91672758D01*
X99288995Y-91524924D01*
X99288996Y-91524922D01*
X99395341Y-91395341D01*
X99524922Y-91288996D01*
X99540094Y-91280886D01*
X99672758Y-91209976D01*
X99833177Y-91161313D01*
X99958196Y-91149000D01*
X100041804Y-91149000D01*
X100166823Y-91161313D01*
X100166823Y-91161313D01*
G37*
G36*
X130666823Y-91161313D02*
G01*
X130827242Y-91209976D01*
X130959906Y-91280886D01*
X130975078Y-91288996D01*
X131104659Y-91395341D01*
X131211004Y-91524922D01*
X131211005Y-91524924D01*
X131290024Y-91672758D01*
X131338687Y-91833177D01*
X131355117Y-92000000D01*
X131338687Y-92166823D01*
X131290024Y-92327242D01*
X131219114Y-92459906D01*
X131211004Y-92475078D01*
X131104659Y-92604659D01*
X130975078Y-92711004D01*
X130975076Y-92711005D01*
X130827242Y-92790024D01*
X130666823Y-92838687D01*
X130541804Y-92851000D01*
X130458196Y-92851000D01*
X130333177Y-92838687D01*
X130172758Y-92790024D01*
X130024924Y-92711005D01*
X130024922Y-92711004D01*
X129895341Y-92604659D01*
X129788996Y-92475078D01*
X129780886Y-92459906D01*
X129709976Y-92327242D01*
X129661313Y-92166823D01*
X129644883Y-92000000D01*
X129661313Y-91833177D01*
X129709976Y-91672758D01*
X129788995Y-91524924D01*
X129788996Y-91524922D01*
X129895341Y-91395341D01*
X130024922Y-91288996D01*
X130040094Y-91280886D01*
X130172758Y-91209976D01*
X130333177Y-91161313D01*
X130458196Y-91149000D01*
X130541804Y-91149000D01*
X130666823Y-91161313D01*
X130666823Y-91161313D01*
G37*
G36*
X125666823Y-91161313D02*
G01*
X125827242Y-91209976D01*
X125959906Y-91280886D01*
X125975078Y-91288996D01*
X126104659Y-91395341D01*
X126211004Y-91524922D01*
X126211005Y-91524924D01*
X126290024Y-91672758D01*
X126338687Y-91833177D01*
X126355117Y-92000000D01*
X126338687Y-92166823D01*
X126290024Y-92327242D01*
X126219114Y-92459906D01*
X126211004Y-92475078D01*
X126104659Y-92604659D01*
X125975078Y-92711004D01*
X125975076Y-92711005D01*
X125827242Y-92790024D01*
X125666823Y-92838687D01*
X125541804Y-92851000D01*
X125458196Y-92851000D01*
X125333177Y-92838687D01*
X125172758Y-92790024D01*
X125024924Y-92711005D01*
X125024922Y-92711004D01*
X124895341Y-92604659D01*
X124788996Y-92475078D01*
X124780886Y-92459906D01*
X124709976Y-92327242D01*
X124661313Y-92166823D01*
X124644883Y-92000000D01*
X124661313Y-91833177D01*
X124709976Y-91672758D01*
X124788995Y-91524924D01*
X124788996Y-91524922D01*
X124895341Y-91395341D01*
X125024922Y-91288996D01*
X125040094Y-91280886D01*
X125172758Y-91209976D01*
X125333177Y-91161313D01*
X125458196Y-91149000D01*
X125541804Y-91149000D01*
X125666823Y-91161313D01*
X125666823Y-91161313D01*
G37*
G36*
X105166823Y-91161313D02*
G01*
X105327242Y-91209976D01*
X105459906Y-91280886D01*
X105475078Y-91288996D01*
X105604659Y-91395341D01*
X105711004Y-91524922D01*
X105711005Y-91524924D01*
X105790024Y-91672758D01*
X105838687Y-91833177D01*
X105855117Y-92000000D01*
X105838687Y-92166823D01*
X105790024Y-92327242D01*
X105719114Y-92459906D01*
X105711004Y-92475078D01*
X105604659Y-92604659D01*
X105475078Y-92711004D01*
X105475076Y-92711005D01*
X105327242Y-92790024D01*
X105166823Y-92838687D01*
X105041804Y-92851000D01*
X104958196Y-92851000D01*
X104833177Y-92838687D01*
X104672758Y-92790024D01*
X104524924Y-92711005D01*
X104524922Y-92711004D01*
X104395341Y-92604659D01*
X104288996Y-92475078D01*
X104280886Y-92459906D01*
X104209976Y-92327242D01*
X104161313Y-92166823D01*
X104144883Y-92000000D01*
X104161313Y-91833177D01*
X104209976Y-91672758D01*
X104288995Y-91524924D01*
X104288996Y-91524922D01*
X104395341Y-91395341D01*
X104524922Y-91288996D01*
X104540094Y-91280886D01*
X104672758Y-91209976D01*
X104833177Y-91161313D01*
X104958196Y-91149000D01*
X105041804Y-91149000D01*
X105166823Y-91161313D01*
X105166823Y-91161313D01*
G37*
G36*
X81266823Y-91161313D02*
G01*
X81427242Y-91209976D01*
X81559906Y-91280886D01*
X81575078Y-91288996D01*
X81704659Y-91395341D01*
X81811004Y-91524922D01*
X81811005Y-91524924D01*
X81890024Y-91672758D01*
X81938687Y-91833177D01*
X81955117Y-92000000D01*
X81938687Y-92166823D01*
X81890024Y-92327242D01*
X81819114Y-92459906D01*
X81811004Y-92475078D01*
X81704659Y-92604659D01*
X81575078Y-92711004D01*
X81575076Y-92711005D01*
X81427242Y-92790024D01*
X81266823Y-92838687D01*
X81141804Y-92851000D01*
X81058196Y-92851000D01*
X80933177Y-92838687D01*
X80772758Y-92790024D01*
X80624924Y-92711005D01*
X80624922Y-92711004D01*
X80495341Y-92604659D01*
X80388996Y-92475078D01*
X80380886Y-92459906D01*
X80309976Y-92327242D01*
X80261313Y-92166823D01*
X80244883Y-92000000D01*
X80261313Y-91833177D01*
X80309976Y-91672758D01*
X80388995Y-91524924D01*
X80388996Y-91524922D01*
X80495341Y-91395341D01*
X80624922Y-91288996D01*
X80640094Y-91280886D01*
X80772758Y-91209976D01*
X80933177Y-91161313D01*
X81058196Y-91149000D01*
X81141804Y-91149000D01*
X81266823Y-91161313D01*
X81266823Y-91161313D01*
G37*
G36*
X76266823Y-91161313D02*
G01*
X76427242Y-91209976D01*
X76559906Y-91280886D01*
X76575078Y-91288996D01*
X76704659Y-91395341D01*
X76811004Y-91524922D01*
X76811005Y-91524924D01*
X76890024Y-91672758D01*
X76938687Y-91833177D01*
X76955117Y-92000000D01*
X76938687Y-92166823D01*
X76890024Y-92327242D01*
X76819114Y-92459906D01*
X76811004Y-92475078D01*
X76704659Y-92604659D01*
X76575078Y-92711004D01*
X76575076Y-92711005D01*
X76427242Y-92790024D01*
X76266823Y-92838687D01*
X76141804Y-92851000D01*
X76058196Y-92851000D01*
X75933177Y-92838687D01*
X75772758Y-92790024D01*
X75624924Y-92711005D01*
X75624922Y-92711004D01*
X75495341Y-92604659D01*
X75388996Y-92475078D01*
X75380886Y-92459906D01*
X75309976Y-92327242D01*
X75261313Y-92166823D01*
X75244883Y-92000000D01*
X75261313Y-91833177D01*
X75309976Y-91672758D01*
X75388995Y-91524924D01*
X75388996Y-91524922D01*
X75495341Y-91395341D01*
X75624922Y-91288996D01*
X75640094Y-91280886D01*
X75772758Y-91209976D01*
X75933177Y-91161313D01*
X76058196Y-91149000D01*
X76141804Y-91149000D01*
X76266823Y-91161313D01*
X76266823Y-91161313D01*
G37*
G36*
X105166823Y-89161313D02*
G01*
X105327242Y-89209976D01*
X105459906Y-89280886D01*
X105475078Y-89288996D01*
X105604659Y-89395341D01*
X105711004Y-89524922D01*
X105711005Y-89524924D01*
X105790024Y-89672758D01*
X105838687Y-89833177D01*
X105855117Y-90000000D01*
X105838687Y-90166823D01*
X105790024Y-90327242D01*
X105719114Y-90459906D01*
X105711004Y-90475078D01*
X105604659Y-90604659D01*
X105475078Y-90711004D01*
X105475076Y-90711005D01*
X105327242Y-90790024D01*
X105166823Y-90838687D01*
X105041804Y-90851000D01*
X104958196Y-90851000D01*
X104833177Y-90838687D01*
X104672758Y-90790024D01*
X104524924Y-90711005D01*
X104524922Y-90711004D01*
X104395341Y-90604659D01*
X104288996Y-90475078D01*
X104280886Y-90459906D01*
X104209976Y-90327242D01*
X104161313Y-90166823D01*
X104144883Y-90000000D01*
X104161313Y-89833177D01*
X104209976Y-89672758D01*
X104288995Y-89524924D01*
X104288996Y-89524922D01*
X104395341Y-89395341D01*
X104524922Y-89288996D01*
X104540094Y-89280886D01*
X104672758Y-89209976D01*
X104833177Y-89161313D01*
X104958196Y-89149000D01*
X105041804Y-89149000D01*
X105166823Y-89161313D01*
X105166823Y-89161313D01*
G37*
G36*
X81266823Y-89161313D02*
G01*
X81427242Y-89209976D01*
X81559906Y-89280886D01*
X81575078Y-89288996D01*
X81704659Y-89395341D01*
X81811004Y-89524922D01*
X81811005Y-89524924D01*
X81890024Y-89672758D01*
X81938687Y-89833177D01*
X81955117Y-90000000D01*
X81938687Y-90166823D01*
X81890024Y-90327242D01*
X81819114Y-90459906D01*
X81811004Y-90475078D01*
X81704659Y-90604659D01*
X81575078Y-90711004D01*
X81575076Y-90711005D01*
X81427242Y-90790024D01*
X81266823Y-90838687D01*
X81141804Y-90851000D01*
X81058196Y-90851000D01*
X80933177Y-90838687D01*
X80772758Y-90790024D01*
X80624924Y-90711005D01*
X80624922Y-90711004D01*
X80495341Y-90604659D01*
X80388996Y-90475078D01*
X80380886Y-90459906D01*
X80309976Y-90327242D01*
X80261313Y-90166823D01*
X80244883Y-90000000D01*
X80261313Y-89833177D01*
X80309976Y-89672758D01*
X80388995Y-89524924D01*
X80388996Y-89524922D01*
X80495341Y-89395341D01*
X80624922Y-89288996D01*
X80640094Y-89280886D01*
X80772758Y-89209976D01*
X80933177Y-89161313D01*
X81058196Y-89149000D01*
X81141804Y-89149000D01*
X81266823Y-89161313D01*
X81266823Y-89161313D01*
G37*
G36*
X100166823Y-89161313D02*
G01*
X100327242Y-89209976D01*
X100459906Y-89280886D01*
X100475078Y-89288996D01*
X100604659Y-89395341D01*
X100711004Y-89524922D01*
X100711005Y-89524924D01*
X100790024Y-89672758D01*
X100838687Y-89833177D01*
X100855117Y-90000000D01*
X100838687Y-90166823D01*
X100790024Y-90327242D01*
X100719114Y-90459906D01*
X100711004Y-90475078D01*
X100604659Y-90604659D01*
X100475078Y-90711004D01*
X100475076Y-90711005D01*
X100327242Y-90790024D01*
X100166823Y-90838687D01*
X100041804Y-90851000D01*
X99958196Y-90851000D01*
X99833177Y-90838687D01*
X99672758Y-90790024D01*
X99524924Y-90711005D01*
X99524922Y-90711004D01*
X99395341Y-90604659D01*
X99288996Y-90475078D01*
X99280886Y-90459906D01*
X99209976Y-90327242D01*
X99161313Y-90166823D01*
X99144883Y-90000000D01*
X99161313Y-89833177D01*
X99209976Y-89672758D01*
X99288995Y-89524924D01*
X99288996Y-89524922D01*
X99395341Y-89395341D01*
X99524922Y-89288996D01*
X99540094Y-89280886D01*
X99672758Y-89209976D01*
X99833177Y-89161313D01*
X99958196Y-89149000D01*
X100041804Y-89149000D01*
X100166823Y-89161313D01*
X100166823Y-89161313D01*
G37*
G36*
X125666823Y-89161313D02*
G01*
X125827242Y-89209976D01*
X125959906Y-89280886D01*
X125975078Y-89288996D01*
X126104659Y-89395341D01*
X126211004Y-89524922D01*
X126211005Y-89524924D01*
X126290024Y-89672758D01*
X126338687Y-89833177D01*
X126355117Y-90000000D01*
X126338687Y-90166823D01*
X126290024Y-90327242D01*
X126219114Y-90459906D01*
X126211004Y-90475078D01*
X126104659Y-90604659D01*
X125975078Y-90711004D01*
X125975076Y-90711005D01*
X125827242Y-90790024D01*
X125666823Y-90838687D01*
X125541804Y-90851000D01*
X125458196Y-90851000D01*
X125333177Y-90838687D01*
X125172758Y-90790024D01*
X125024924Y-90711005D01*
X125024922Y-90711004D01*
X124895341Y-90604659D01*
X124788996Y-90475078D01*
X124780886Y-90459906D01*
X124709976Y-90327242D01*
X124661313Y-90166823D01*
X124644883Y-90000000D01*
X124661313Y-89833177D01*
X124709976Y-89672758D01*
X124788995Y-89524924D01*
X124788996Y-89524922D01*
X124895341Y-89395341D01*
X125024922Y-89288996D01*
X125040094Y-89280886D01*
X125172758Y-89209976D01*
X125333177Y-89161313D01*
X125458196Y-89149000D01*
X125541804Y-89149000D01*
X125666823Y-89161313D01*
X125666823Y-89161313D01*
G37*
G36*
X130666823Y-89161313D02*
G01*
X130827242Y-89209976D01*
X130959906Y-89280886D01*
X130975078Y-89288996D01*
X131104659Y-89395341D01*
X131211004Y-89524922D01*
X131211005Y-89524924D01*
X131290024Y-89672758D01*
X131338687Y-89833177D01*
X131355117Y-90000000D01*
X131338687Y-90166823D01*
X131290024Y-90327242D01*
X131219114Y-90459906D01*
X131211004Y-90475078D01*
X131104659Y-90604659D01*
X130975078Y-90711004D01*
X130975076Y-90711005D01*
X130827242Y-90790024D01*
X130666823Y-90838687D01*
X130541804Y-90851000D01*
X130458196Y-90851000D01*
X130333177Y-90838687D01*
X130172758Y-90790024D01*
X130024924Y-90711005D01*
X130024922Y-90711004D01*
X129895341Y-90604659D01*
X129788996Y-90475078D01*
X129780886Y-90459906D01*
X129709976Y-90327242D01*
X129661313Y-90166823D01*
X129644883Y-90000000D01*
X129661313Y-89833177D01*
X129709976Y-89672758D01*
X129788995Y-89524924D01*
X129788996Y-89524922D01*
X129895341Y-89395341D01*
X130024922Y-89288996D01*
X130040094Y-89280886D01*
X130172758Y-89209976D01*
X130333177Y-89161313D01*
X130458196Y-89149000D01*
X130541804Y-89149000D01*
X130666823Y-89161313D01*
X130666823Y-89161313D01*
G37*
G36*
X76266823Y-89161313D02*
G01*
X76427242Y-89209976D01*
X76559906Y-89280886D01*
X76575078Y-89288996D01*
X76704659Y-89395341D01*
X76811004Y-89524922D01*
X76811005Y-89524924D01*
X76890024Y-89672758D01*
X76938687Y-89833177D01*
X76955117Y-90000000D01*
X76938687Y-90166823D01*
X76890024Y-90327242D01*
X76819114Y-90459906D01*
X76811004Y-90475078D01*
X76704659Y-90604659D01*
X76575078Y-90711004D01*
X76575076Y-90711005D01*
X76427242Y-90790024D01*
X76266823Y-90838687D01*
X76141804Y-90851000D01*
X76058196Y-90851000D01*
X75933177Y-90838687D01*
X75772758Y-90790024D01*
X75624924Y-90711005D01*
X75624922Y-90711004D01*
X75495341Y-90604659D01*
X75388996Y-90475078D01*
X75380886Y-90459906D01*
X75309976Y-90327242D01*
X75261313Y-90166823D01*
X75244883Y-90000000D01*
X75261313Y-89833177D01*
X75309976Y-89672758D01*
X75388995Y-89524924D01*
X75388996Y-89524922D01*
X75495341Y-89395341D01*
X75624922Y-89288996D01*
X75640094Y-89280886D01*
X75772758Y-89209976D01*
X75933177Y-89161313D01*
X76058196Y-89149000D01*
X76141804Y-89149000D01*
X76266823Y-89161313D01*
X76266823Y-89161313D01*
G37*
G36*
X125600092Y-81493773D02*
G01*
X125706032Y-81504207D01*
X125904146Y-81564305D01*
X125904149Y-81564306D01*
X126000975Y-81616061D01*
X126086729Y-81661897D01*
X126246765Y-81793235D01*
X126378103Y-81953271D01*
X126406465Y-82006333D01*
X126475694Y-82135851D01*
X126475695Y-82135854D01*
X126535793Y-82333968D01*
X126556085Y-82540000D01*
X126535793Y-82746032D01*
X126476114Y-82942765D01*
X126475694Y-82944149D01*
X126438115Y-83014454D01*
X126378103Y-83126729D01*
X126246765Y-83286765D01*
X126086729Y-83418103D01*
X126000975Y-83463939D01*
X125904149Y-83515694D01*
X125904146Y-83515695D01*
X125706032Y-83575793D01*
X125603097Y-83585931D01*
X125551631Y-83591000D01*
X125448369Y-83591000D01*
X125396903Y-83585931D01*
X125293968Y-83575793D01*
X125095854Y-83515695D01*
X125095851Y-83515694D01*
X124999025Y-83463939D01*
X124913271Y-83418103D01*
X124753235Y-83286765D01*
X124621897Y-83126729D01*
X124561885Y-83014454D01*
X124524306Y-82944149D01*
X124523886Y-82942765D01*
X124464207Y-82746032D01*
X124443915Y-82540000D01*
X124464207Y-82333968D01*
X124524305Y-82135854D01*
X124524306Y-82135851D01*
X124593535Y-82006333D01*
X124621897Y-81953271D01*
X124753235Y-81793235D01*
X124913271Y-81661897D01*
X124999025Y-81616061D01*
X125095851Y-81564306D01*
X125095854Y-81564305D01*
X125293968Y-81504207D01*
X125399908Y-81493773D01*
X125448369Y-81489000D01*
X125551631Y-81489000D01*
X125600092Y-81493773D01*
X125600092Y-81493773D01*
G37*
G36*
X102877395Y-81625546D02*
G01*
X103050466Y-81697234D01*
X103050467Y-81697235D01*
X103206227Y-81801310D01*
X103338690Y-81933773D01*
X103387173Y-82006333D01*
X103442766Y-82089534D01*
X103514454Y-82262605D01*
X103551000Y-82446333D01*
X103551000Y-82633667D01*
X103514454Y-82817395D01*
X103442766Y-82990466D01*
X103402318Y-83051000D01*
X103338690Y-83146227D01*
X103206227Y-83278690D01*
X103127818Y-83331081D01*
X103050466Y-83382766D01*
X102877395Y-83454454D01*
X102693667Y-83491000D01*
X102506333Y-83491000D01*
X102322605Y-83454454D01*
X102149534Y-83382766D01*
X102072182Y-83331081D01*
X101993773Y-83278690D01*
X101861310Y-83146227D01*
X101797682Y-83051000D01*
X101757234Y-82990466D01*
X101685546Y-82817395D01*
X101649000Y-82633667D01*
X101649000Y-82446333D01*
X101685546Y-82262605D01*
X101757234Y-82089534D01*
X101812827Y-82006333D01*
X101861310Y-81933773D01*
X101993773Y-81801310D01*
X102149533Y-81697235D01*
X102149534Y-81697234D01*
X102322605Y-81625546D01*
X102506333Y-81589000D01*
X102693667Y-81589000D01*
X102877395Y-81625546D01*
X102877395Y-81625546D01*
G37*
G36*
X77437395Y-81185546D02*
G01*
X77610466Y-81257234D01*
X77610467Y-81257235D01*
X77766227Y-81361310D01*
X77898690Y-81493773D01*
X77945818Y-81564305D01*
X78002766Y-81649534D01*
X78074454Y-81822605D01*
X78111000Y-82006333D01*
X78111000Y-82193667D01*
X78074454Y-82377395D01*
X78002766Y-82550466D01*
X78002765Y-82550467D01*
X77898690Y-82706227D01*
X77766227Y-82838690D01*
X77687818Y-82891081D01*
X77610466Y-82942766D01*
X77437395Y-83014454D01*
X77253667Y-83051000D01*
X77066333Y-83051000D01*
X76882605Y-83014454D01*
X76709534Y-82942766D01*
X76632182Y-82891081D01*
X76553773Y-82838690D01*
X76421310Y-82706227D01*
X76317235Y-82550467D01*
X76317234Y-82550466D01*
X76245546Y-82377395D01*
X76209000Y-82193667D01*
X76209000Y-82006333D01*
X76245546Y-81822605D01*
X76317234Y-81649534D01*
X76374182Y-81564305D01*
X76421310Y-81493773D01*
X76553773Y-81361310D01*
X76709533Y-81257235D01*
X76709534Y-81257234D01*
X76882605Y-81185546D01*
X77066333Y-81149000D01*
X77253667Y-81149000D01*
X77437395Y-81185546D01*
X77437395Y-81185546D01*
G37*
G36*
X80651000Y-83051000D02*
G01*
X78749000Y-83051000D01*
X78749000Y-81149000D01*
X80651000Y-81149000D01*
X80651000Y-83051000D01*
X80651000Y-83051000D01*
G37*
G36*
X126551000Y-81051000D02*
G01*
X124449000Y-81051000D01*
X124449000Y-78949000D01*
X126551000Y-78949000D01*
X126551000Y-81051000D01*
X126551000Y-81051000D01*
G37*
G36*
X103551000Y-80951000D02*
G01*
X101649000Y-80951000D01*
X101649000Y-79049000D01*
X103551000Y-79049000D01*
X103551000Y-80951000D01*
X103551000Y-80951000D01*
G37*
G36*
X97183097Y-72954069D02*
G01*
X97286032Y-72964207D01*
X97484146Y-73024305D01*
X97484149Y-73024306D01*
X97580975Y-73076061D01*
X97666729Y-73121897D01*
X97826765Y-73253235D01*
X97958103Y-73413271D01*
X98003939Y-73499025D01*
X98055694Y-73595851D01*
X98055695Y-73595854D01*
X98115793Y-73793968D01*
X98136085Y-74000000D01*
X98115793Y-74206032D01*
X98055695Y-74404146D01*
X98055694Y-74404149D01*
X98003939Y-74500975D01*
X97958103Y-74586729D01*
X97826765Y-74746765D01*
X97666729Y-74878103D01*
X97580975Y-74923939D01*
X97484149Y-74975694D01*
X97484146Y-74975695D01*
X97286032Y-75035793D01*
X97183097Y-75045931D01*
X97131631Y-75051000D01*
X97028369Y-75051000D01*
X96976903Y-75045931D01*
X96873968Y-75035793D01*
X96675854Y-74975695D01*
X96675851Y-74975694D01*
X96579025Y-74923939D01*
X96493271Y-74878103D01*
X96333235Y-74746765D01*
X96201897Y-74586729D01*
X96156061Y-74500975D01*
X96104306Y-74404149D01*
X96104305Y-74404146D01*
X96044207Y-74206032D01*
X96023915Y-74000000D01*
X96044207Y-73793968D01*
X96104305Y-73595854D01*
X96104306Y-73595851D01*
X96156061Y-73499025D01*
X96201897Y-73413271D01*
X96333235Y-73253235D01*
X96493271Y-73121897D01*
X96579025Y-73076061D01*
X96675851Y-73024306D01*
X96675854Y-73024305D01*
X96873968Y-72964207D01*
X96976903Y-72954069D01*
X97028369Y-72949000D01*
X97131631Y-72949000D01*
X97183097Y-72954069D01*
X97183097Y-72954069D01*
G37*
G36*
X94643097Y-72954069D02*
G01*
X94746032Y-72964207D01*
X94944146Y-73024305D01*
X94944149Y-73024306D01*
X95040975Y-73076061D01*
X95126729Y-73121897D01*
X95286765Y-73253235D01*
X95418103Y-73413271D01*
X95463939Y-73499025D01*
X95515694Y-73595851D01*
X95515695Y-73595854D01*
X95575793Y-73793968D01*
X95596085Y-74000000D01*
X95575793Y-74206032D01*
X95515695Y-74404146D01*
X95515694Y-74404149D01*
X95463939Y-74500975D01*
X95418103Y-74586729D01*
X95286765Y-74746765D01*
X95126729Y-74878103D01*
X95040975Y-74923939D01*
X94944149Y-74975694D01*
X94944146Y-74975695D01*
X94746032Y-75035793D01*
X94643097Y-75045931D01*
X94591631Y-75051000D01*
X94488369Y-75051000D01*
X94436903Y-75045931D01*
X94333968Y-75035793D01*
X94135854Y-74975695D01*
X94135851Y-74975694D01*
X94039025Y-74923939D01*
X93953271Y-74878103D01*
X93793235Y-74746765D01*
X93661897Y-74586729D01*
X93616061Y-74500975D01*
X93564306Y-74404149D01*
X93564305Y-74404146D01*
X93504207Y-74206032D01*
X93483915Y-74000000D01*
X93504207Y-73793968D01*
X93564305Y-73595854D01*
X93564306Y-73595851D01*
X93616061Y-73499025D01*
X93661897Y-73413271D01*
X93793235Y-73253235D01*
X93953271Y-73121897D01*
X94039025Y-73076061D01*
X94135851Y-73024306D01*
X94135854Y-73024305D01*
X94333968Y-72964207D01*
X94436903Y-72954069D01*
X94488369Y-72949000D01*
X94591631Y-72949000D01*
X94643097Y-72954069D01*
X94643097Y-72954069D01*
G37*
G36*
X93051000Y-75051000D02*
G01*
X90949000Y-75051000D01*
X90949000Y-72949000D01*
X93051000Y-72949000D01*
X93051000Y-75051000D01*
X93051000Y-75051000D01*
G37*
G36*
X109051000Y-75051000D02*
G01*
X106949000Y-75051000D01*
X106949000Y-72949000D01*
X109051000Y-72949000D01*
X109051000Y-75051000D01*
X109051000Y-75051000D01*
G37*
G36*
X110643097Y-72954069D02*
G01*
X110746032Y-72964207D01*
X110944146Y-73024305D01*
X110944149Y-73024306D01*
X111040975Y-73076061D01*
X111126729Y-73121897D01*
X111286765Y-73253235D01*
X111418103Y-73413271D01*
X111463939Y-73499025D01*
X111515694Y-73595851D01*
X111515695Y-73595854D01*
X111575793Y-73793968D01*
X111596085Y-74000000D01*
X111575793Y-74206032D01*
X111515695Y-74404146D01*
X111515694Y-74404149D01*
X111463939Y-74500975D01*
X111418103Y-74586729D01*
X111286765Y-74746765D01*
X111126729Y-74878103D01*
X111040975Y-74923939D01*
X110944149Y-74975694D01*
X110944146Y-74975695D01*
X110746032Y-75035793D01*
X110643097Y-75045931D01*
X110591631Y-75051000D01*
X110488369Y-75051000D01*
X110436903Y-75045931D01*
X110333968Y-75035793D01*
X110135854Y-74975695D01*
X110135851Y-74975694D01*
X110039025Y-74923939D01*
X109953271Y-74878103D01*
X109793235Y-74746765D01*
X109661897Y-74586729D01*
X109616061Y-74500975D01*
X109564306Y-74404149D01*
X109564305Y-74404146D01*
X109504207Y-74206032D01*
X109483915Y-74000000D01*
X109504207Y-73793968D01*
X109564305Y-73595854D01*
X109564306Y-73595851D01*
X109616061Y-73499025D01*
X109661897Y-73413271D01*
X109793235Y-73253235D01*
X109953271Y-73121897D01*
X110039025Y-73076061D01*
X110135851Y-73024306D01*
X110135854Y-73024305D01*
X110333968Y-72964207D01*
X110436903Y-72954069D01*
X110488369Y-72949000D01*
X110591631Y-72949000D01*
X110643097Y-72954069D01*
X110643097Y-72954069D01*
G37*
G36*
X113183097Y-72954069D02*
G01*
X113286032Y-72964207D01*
X113484146Y-73024305D01*
X113484149Y-73024306D01*
X113580975Y-73076061D01*
X113666729Y-73121897D01*
X113826765Y-73253235D01*
X113958103Y-73413271D01*
X114003939Y-73499025D01*
X114055694Y-73595851D01*
X114055695Y-73595854D01*
X114115793Y-73793968D01*
X114136085Y-74000000D01*
X114115793Y-74206032D01*
X114055695Y-74404146D01*
X114055694Y-74404149D01*
X114003939Y-74500975D01*
X113958103Y-74586729D01*
X113826765Y-74746765D01*
X113666729Y-74878103D01*
X113580975Y-74923939D01*
X113484149Y-74975694D01*
X113484146Y-74975695D01*
X113286032Y-75035793D01*
X113183097Y-75045931D01*
X113131631Y-75051000D01*
X113028369Y-75051000D01*
X112976903Y-75045931D01*
X112873968Y-75035793D01*
X112675854Y-74975695D01*
X112675851Y-74975694D01*
X112579025Y-74923939D01*
X112493271Y-74878103D01*
X112333235Y-74746765D01*
X112201897Y-74586729D01*
X112156061Y-74500975D01*
X112104306Y-74404149D01*
X112104305Y-74404146D01*
X112044207Y-74206032D01*
X112023915Y-74000000D01*
X112044207Y-73793968D01*
X112104305Y-73595854D01*
X112104306Y-73595851D01*
X112156061Y-73499025D01*
X112201897Y-73413271D01*
X112333235Y-73253235D01*
X112493271Y-73121897D01*
X112579025Y-73076061D01*
X112675851Y-73024306D01*
X112675854Y-73024305D01*
X112873968Y-72964207D01*
X112976903Y-72954069D01*
X113028369Y-72949000D01*
X113131631Y-72949000D01*
X113183097Y-72954069D01*
X113183097Y-72954069D01*
G37*
G36*
X115723097Y-72954069D02*
G01*
X115826032Y-72964207D01*
X116024146Y-73024305D01*
X116024149Y-73024306D01*
X116120975Y-73076061D01*
X116206729Y-73121897D01*
X116366765Y-73253235D01*
X116498103Y-73413271D01*
X116543939Y-73499025D01*
X116595694Y-73595851D01*
X116595695Y-73595854D01*
X116655793Y-73793968D01*
X116676085Y-74000000D01*
X116655793Y-74206032D01*
X116595695Y-74404146D01*
X116595694Y-74404149D01*
X116543939Y-74500975D01*
X116498103Y-74586729D01*
X116366765Y-74746765D01*
X116206729Y-74878103D01*
X116120975Y-74923939D01*
X116024149Y-74975694D01*
X116024146Y-74975695D01*
X115826032Y-75035793D01*
X115723097Y-75045931D01*
X115671631Y-75051000D01*
X115568369Y-75051000D01*
X115516903Y-75045931D01*
X115413968Y-75035793D01*
X115215854Y-74975695D01*
X115215851Y-74975694D01*
X115119025Y-74923939D01*
X115033271Y-74878103D01*
X114873235Y-74746765D01*
X114741897Y-74586729D01*
X114696061Y-74500975D01*
X114644306Y-74404149D01*
X114644305Y-74404146D01*
X114584207Y-74206032D01*
X114563915Y-74000000D01*
X114584207Y-73793968D01*
X114644305Y-73595854D01*
X114644306Y-73595851D01*
X114696061Y-73499025D01*
X114741897Y-73413271D01*
X114873235Y-73253235D01*
X115033271Y-73121897D01*
X115119025Y-73076061D01*
X115215851Y-73024306D01*
X115215854Y-73024305D01*
X115413968Y-72964207D01*
X115516903Y-72954069D01*
X115568369Y-72949000D01*
X115671631Y-72949000D01*
X115723097Y-72954069D01*
X115723097Y-72954069D01*
G37*
G36*
X130723097Y-72954069D02*
G01*
X130826032Y-72964207D01*
X131024146Y-73024305D01*
X131024149Y-73024306D01*
X131120975Y-73076061D01*
X131206729Y-73121897D01*
X131366765Y-73253235D01*
X131498103Y-73413271D01*
X131543939Y-73499025D01*
X131595694Y-73595851D01*
X131595695Y-73595854D01*
X131655793Y-73793968D01*
X131676085Y-74000000D01*
X131655793Y-74206032D01*
X131595695Y-74404146D01*
X131595694Y-74404149D01*
X131543939Y-74500975D01*
X131498103Y-74586729D01*
X131366765Y-74746765D01*
X131206729Y-74878103D01*
X131120975Y-74923939D01*
X131024149Y-74975694D01*
X131024146Y-74975695D01*
X130826032Y-75035793D01*
X130723097Y-75045931D01*
X130671631Y-75051000D01*
X130568369Y-75051000D01*
X130516903Y-75045931D01*
X130413968Y-75035793D01*
X130215854Y-74975695D01*
X130215851Y-74975694D01*
X130119025Y-74923939D01*
X130033271Y-74878103D01*
X129873235Y-74746765D01*
X129741897Y-74586729D01*
X129696061Y-74500975D01*
X129644306Y-74404149D01*
X129644305Y-74404146D01*
X129584207Y-74206032D01*
X129563915Y-74000000D01*
X129584207Y-73793968D01*
X129644305Y-73595854D01*
X129644306Y-73595851D01*
X129696061Y-73499025D01*
X129741897Y-73413271D01*
X129873235Y-73253235D01*
X130033271Y-73121897D01*
X130119025Y-73076061D01*
X130215851Y-73024306D01*
X130215854Y-73024305D01*
X130413968Y-72964207D01*
X130516903Y-72954069D01*
X130568369Y-72949000D01*
X130671631Y-72949000D01*
X130723097Y-72954069D01*
X130723097Y-72954069D01*
G37*
G36*
X83723097Y-72954069D02*
G01*
X83826032Y-72964207D01*
X84024146Y-73024305D01*
X84024149Y-73024306D01*
X84120975Y-73076061D01*
X84206729Y-73121897D01*
X84366765Y-73253235D01*
X84498103Y-73413271D01*
X84543939Y-73499025D01*
X84595694Y-73595851D01*
X84595695Y-73595854D01*
X84655793Y-73793968D01*
X84676085Y-74000000D01*
X84655793Y-74206032D01*
X84595695Y-74404146D01*
X84595694Y-74404149D01*
X84543939Y-74500975D01*
X84498103Y-74586729D01*
X84366765Y-74746765D01*
X84206729Y-74878103D01*
X84120975Y-74923939D01*
X84024149Y-74975694D01*
X84024146Y-74975695D01*
X83826032Y-75035793D01*
X83723097Y-75045931D01*
X83671631Y-75051000D01*
X83568369Y-75051000D01*
X83516903Y-75045931D01*
X83413968Y-75035793D01*
X83215854Y-74975695D01*
X83215851Y-74975694D01*
X83119025Y-74923939D01*
X83033271Y-74878103D01*
X82873235Y-74746765D01*
X82741897Y-74586729D01*
X82696061Y-74500975D01*
X82644306Y-74404149D01*
X82644305Y-74404146D01*
X82584207Y-74206032D01*
X82563915Y-74000000D01*
X82584207Y-73793968D01*
X82644305Y-73595854D01*
X82644306Y-73595851D01*
X82696061Y-73499025D01*
X82741897Y-73413271D01*
X82873235Y-73253235D01*
X83033271Y-73121897D01*
X83119025Y-73076061D01*
X83215851Y-73024306D01*
X83215854Y-73024305D01*
X83413968Y-72964207D01*
X83516903Y-72954069D01*
X83568369Y-72949000D01*
X83671631Y-72949000D01*
X83723097Y-72954069D01*
X83723097Y-72954069D01*
G37*
G36*
X81183097Y-72954069D02*
G01*
X81286032Y-72964207D01*
X81484146Y-73024305D01*
X81484149Y-73024306D01*
X81580975Y-73076061D01*
X81666729Y-73121897D01*
X81826765Y-73253235D01*
X81958103Y-73413271D01*
X82003939Y-73499025D01*
X82055694Y-73595851D01*
X82055695Y-73595854D01*
X82115793Y-73793968D01*
X82136085Y-74000000D01*
X82115793Y-74206032D01*
X82055695Y-74404146D01*
X82055694Y-74404149D01*
X82003939Y-74500975D01*
X81958103Y-74586729D01*
X81826765Y-74746765D01*
X81666729Y-74878103D01*
X81580975Y-74923939D01*
X81484149Y-74975694D01*
X81484146Y-74975695D01*
X81286032Y-75035793D01*
X81183097Y-75045931D01*
X81131631Y-75051000D01*
X81028369Y-75051000D01*
X80976903Y-75045931D01*
X80873968Y-75035793D01*
X80675854Y-74975695D01*
X80675851Y-74975694D01*
X80579025Y-74923939D01*
X80493271Y-74878103D01*
X80333235Y-74746765D01*
X80201897Y-74586729D01*
X80156061Y-74500975D01*
X80104306Y-74404149D01*
X80104305Y-74404146D01*
X80044207Y-74206032D01*
X80023915Y-74000000D01*
X80044207Y-73793968D01*
X80104305Y-73595854D01*
X80104306Y-73595851D01*
X80156061Y-73499025D01*
X80201897Y-73413271D01*
X80333235Y-73253235D01*
X80493271Y-73121897D01*
X80579025Y-73076061D01*
X80675851Y-73024306D01*
X80675854Y-73024305D01*
X80873968Y-72964207D01*
X80976903Y-72954069D01*
X81028369Y-72949000D01*
X81131631Y-72949000D01*
X81183097Y-72954069D01*
X81183097Y-72954069D01*
G37*
G36*
X77051000Y-75051000D02*
G01*
X74949000Y-75051000D01*
X74949000Y-72949000D01*
X77051000Y-72949000D01*
X77051000Y-75051000D01*
X77051000Y-75051000D01*
G37*
G36*
X128183097Y-72954069D02*
G01*
X128286032Y-72964207D01*
X128484146Y-73024305D01*
X128484149Y-73024306D01*
X128580975Y-73076061D01*
X128666729Y-73121897D01*
X128826765Y-73253235D01*
X128958103Y-73413271D01*
X129003939Y-73499025D01*
X129055694Y-73595851D01*
X129055695Y-73595854D01*
X129115793Y-73793968D01*
X129136085Y-74000000D01*
X129115793Y-74206032D01*
X129055695Y-74404146D01*
X129055694Y-74404149D01*
X129003939Y-74500975D01*
X128958103Y-74586729D01*
X128826765Y-74746765D01*
X128666729Y-74878103D01*
X128580975Y-74923939D01*
X128484149Y-74975694D01*
X128484146Y-74975695D01*
X128286032Y-75035793D01*
X128183097Y-75045931D01*
X128131631Y-75051000D01*
X128028369Y-75051000D01*
X127976903Y-75045931D01*
X127873968Y-75035793D01*
X127675854Y-74975695D01*
X127675851Y-74975694D01*
X127579025Y-74923939D01*
X127493271Y-74878103D01*
X127333235Y-74746765D01*
X127201897Y-74586729D01*
X127156061Y-74500975D01*
X127104306Y-74404149D01*
X127104305Y-74404146D01*
X127044207Y-74206032D01*
X127023915Y-74000000D01*
X127044207Y-73793968D01*
X127104305Y-73595854D01*
X127104306Y-73595851D01*
X127156061Y-73499025D01*
X127201897Y-73413271D01*
X127333235Y-73253235D01*
X127493271Y-73121897D01*
X127579025Y-73076061D01*
X127675851Y-73024306D01*
X127675854Y-73024305D01*
X127873968Y-72964207D01*
X127976903Y-72954069D01*
X128028369Y-72949000D01*
X128131631Y-72949000D01*
X128183097Y-72954069D01*
X128183097Y-72954069D01*
G37*
G36*
X125643097Y-72954069D02*
G01*
X125746032Y-72964207D01*
X125944146Y-73024305D01*
X125944149Y-73024306D01*
X126040975Y-73076061D01*
X126126729Y-73121897D01*
X126286765Y-73253235D01*
X126418103Y-73413271D01*
X126463939Y-73499025D01*
X126515694Y-73595851D01*
X126515695Y-73595854D01*
X126575793Y-73793968D01*
X126596085Y-74000000D01*
X126575793Y-74206032D01*
X126515695Y-74404146D01*
X126515694Y-74404149D01*
X126463939Y-74500975D01*
X126418103Y-74586729D01*
X126286765Y-74746765D01*
X126126729Y-74878103D01*
X126040975Y-74923939D01*
X125944149Y-74975694D01*
X125944146Y-74975695D01*
X125746032Y-75035793D01*
X125643097Y-75045931D01*
X125591631Y-75051000D01*
X125488369Y-75051000D01*
X125436903Y-75045931D01*
X125333968Y-75035793D01*
X125135854Y-74975695D01*
X125135851Y-74975694D01*
X125039025Y-74923939D01*
X124953271Y-74878103D01*
X124793235Y-74746765D01*
X124661897Y-74586729D01*
X124616061Y-74500975D01*
X124564306Y-74404149D01*
X124564305Y-74404146D01*
X124504207Y-74206032D01*
X124483915Y-74000000D01*
X124504207Y-73793968D01*
X124564305Y-73595854D01*
X124564306Y-73595851D01*
X124616061Y-73499025D01*
X124661897Y-73413271D01*
X124793235Y-73253235D01*
X124953271Y-73121897D01*
X125039025Y-73076061D01*
X125135851Y-73024306D01*
X125135854Y-73024305D01*
X125333968Y-72964207D01*
X125436903Y-72954069D01*
X125488369Y-72949000D01*
X125591631Y-72949000D01*
X125643097Y-72954069D01*
X125643097Y-72954069D01*
G37*
G36*
X124051000Y-75051000D02*
G01*
X121949000Y-75051000D01*
X121949000Y-72949000D01*
X124051000Y-72949000D01*
X124051000Y-75051000D01*
X124051000Y-75051000D01*
G37*
G36*
X78643097Y-72954069D02*
G01*
X78746032Y-72964207D01*
X78944146Y-73024305D01*
X78944149Y-73024306D01*
X79040975Y-73076061D01*
X79126729Y-73121897D01*
X79286765Y-73253235D01*
X79418103Y-73413271D01*
X79463939Y-73499025D01*
X79515694Y-73595851D01*
X79515695Y-73595854D01*
X79575793Y-73793968D01*
X79596085Y-74000000D01*
X79575793Y-74206032D01*
X79515695Y-74404146D01*
X79515694Y-74404149D01*
X79463939Y-74500975D01*
X79418103Y-74586729D01*
X79286765Y-74746765D01*
X79126729Y-74878103D01*
X79040975Y-74923939D01*
X78944149Y-74975694D01*
X78944146Y-74975695D01*
X78746032Y-75035793D01*
X78643097Y-75045931D01*
X78591631Y-75051000D01*
X78488369Y-75051000D01*
X78436903Y-75045931D01*
X78333968Y-75035793D01*
X78135854Y-74975695D01*
X78135851Y-74975694D01*
X78039025Y-74923939D01*
X77953271Y-74878103D01*
X77793235Y-74746765D01*
X77661897Y-74586729D01*
X77616061Y-74500975D01*
X77564306Y-74404149D01*
X77564305Y-74404146D01*
X77504207Y-74206032D01*
X77483915Y-74000000D01*
X77504207Y-73793968D01*
X77564305Y-73595854D01*
X77564306Y-73595851D01*
X77616061Y-73499025D01*
X77661897Y-73413271D01*
X77793235Y-73253235D01*
X77953271Y-73121897D01*
X78039025Y-73076061D01*
X78135851Y-73024306D01*
X78135854Y-73024305D01*
X78333968Y-72964207D01*
X78436903Y-72954069D01*
X78488369Y-72949000D01*
X78591631Y-72949000D01*
X78643097Y-72954069D01*
X78643097Y-72954069D01*
G37*
G36*
X99723097Y-72954069D02*
G01*
X99826032Y-72964207D01*
X100024146Y-73024305D01*
X100024149Y-73024306D01*
X100120975Y-73076061D01*
X100206729Y-73121897D01*
X100366765Y-73253235D01*
X100498103Y-73413271D01*
X100543939Y-73499025D01*
X100595694Y-73595851D01*
X100595695Y-73595854D01*
X100655793Y-73793968D01*
X100676085Y-74000000D01*
X100655793Y-74206032D01*
X100595695Y-74404146D01*
X100595694Y-74404149D01*
X100543939Y-74500975D01*
X100498103Y-74586729D01*
X100366765Y-74746765D01*
X100206729Y-74878103D01*
X100120975Y-74923939D01*
X100024149Y-74975694D01*
X100024146Y-74975695D01*
X99826032Y-75035793D01*
X99723097Y-75045931D01*
X99671631Y-75051000D01*
X99568369Y-75051000D01*
X99516903Y-75045931D01*
X99413968Y-75035793D01*
X99215854Y-74975695D01*
X99215851Y-74975694D01*
X99119025Y-74923939D01*
X99033271Y-74878103D01*
X98873235Y-74746765D01*
X98741897Y-74586729D01*
X98696061Y-74500975D01*
X98644306Y-74404149D01*
X98644305Y-74404146D01*
X98584207Y-74206032D01*
X98563915Y-74000000D01*
X98584207Y-73793968D01*
X98644305Y-73595854D01*
X98644306Y-73595851D01*
X98696061Y-73499025D01*
X98741897Y-73413271D01*
X98873235Y-73253235D01*
X99033271Y-73121897D01*
X99119025Y-73076061D01*
X99215851Y-73024306D01*
X99215854Y-73024305D01*
X99413968Y-72964207D01*
X99516903Y-72954069D01*
X99568369Y-72949000D01*
X99671631Y-72949000D01*
X99723097Y-72954069D01*
X99723097Y-72954069D01*
G37*
G36*
X76103097Y-70414069D02*
G01*
X76206032Y-70424207D01*
X76404146Y-70484305D01*
X76404149Y-70484306D01*
X76500975Y-70536061D01*
X76586729Y-70581897D01*
X76746765Y-70713235D01*
X76878103Y-70873271D01*
X76923939Y-70959025D01*
X76975694Y-71055851D01*
X76975695Y-71055854D01*
X77035793Y-71253968D01*
X77056085Y-71460000D01*
X77035793Y-71666032D01*
X76975695Y-71864146D01*
X76975694Y-71864149D01*
X76923939Y-71960975D01*
X76878103Y-72046729D01*
X76746765Y-72206765D01*
X76586729Y-72338103D01*
X76500975Y-72383939D01*
X76404149Y-72435694D01*
X76404146Y-72435695D01*
X76206032Y-72495793D01*
X76103097Y-72505931D01*
X76051631Y-72511000D01*
X75948369Y-72511000D01*
X75896903Y-72505931D01*
X75793968Y-72495793D01*
X75595854Y-72435695D01*
X75595851Y-72435694D01*
X75499025Y-72383939D01*
X75413271Y-72338103D01*
X75253235Y-72206765D01*
X75121897Y-72046729D01*
X75076061Y-71960975D01*
X75024306Y-71864149D01*
X75024305Y-71864146D01*
X74964207Y-71666032D01*
X74943915Y-71460000D01*
X74964207Y-71253968D01*
X75024305Y-71055854D01*
X75024306Y-71055851D01*
X75076061Y-70959025D01*
X75121897Y-70873271D01*
X75253235Y-70713235D01*
X75413271Y-70581897D01*
X75499025Y-70536061D01*
X75595851Y-70484306D01*
X75595854Y-70484305D01*
X75793968Y-70424207D01*
X75896903Y-70414069D01*
X75948369Y-70409000D01*
X76051631Y-70409000D01*
X76103097Y-70414069D01*
X76103097Y-70414069D01*
G37*
G36*
X78643097Y-70414069D02*
G01*
X78746032Y-70424207D01*
X78944146Y-70484305D01*
X78944149Y-70484306D01*
X79040975Y-70536061D01*
X79126729Y-70581897D01*
X79286765Y-70713235D01*
X79418103Y-70873271D01*
X79463939Y-70959025D01*
X79515694Y-71055851D01*
X79515695Y-71055854D01*
X79575793Y-71253968D01*
X79596085Y-71460000D01*
X79575793Y-71666032D01*
X79515695Y-71864146D01*
X79515694Y-71864149D01*
X79463939Y-71960975D01*
X79418103Y-72046729D01*
X79286765Y-72206765D01*
X79126729Y-72338103D01*
X79040975Y-72383939D01*
X78944149Y-72435694D01*
X78944146Y-72435695D01*
X78746032Y-72495793D01*
X78643097Y-72505931D01*
X78591631Y-72511000D01*
X78488369Y-72511000D01*
X78436903Y-72505931D01*
X78333968Y-72495793D01*
X78135854Y-72435695D01*
X78135851Y-72435694D01*
X78039025Y-72383939D01*
X77953271Y-72338103D01*
X77793235Y-72206765D01*
X77661897Y-72046729D01*
X77616061Y-71960975D01*
X77564306Y-71864149D01*
X77564305Y-71864146D01*
X77504207Y-71666032D01*
X77483915Y-71460000D01*
X77504207Y-71253968D01*
X77564305Y-71055854D01*
X77564306Y-71055851D01*
X77616061Y-70959025D01*
X77661897Y-70873271D01*
X77793235Y-70713235D01*
X77953271Y-70581897D01*
X78039025Y-70536061D01*
X78135851Y-70484306D01*
X78135854Y-70484305D01*
X78333968Y-70424207D01*
X78436903Y-70414069D01*
X78488369Y-70409000D01*
X78591631Y-70409000D01*
X78643097Y-70414069D01*
X78643097Y-70414069D01*
G37*
G36*
X81183097Y-70414069D02*
G01*
X81286032Y-70424207D01*
X81484146Y-70484305D01*
X81484149Y-70484306D01*
X81580975Y-70536061D01*
X81666729Y-70581897D01*
X81826765Y-70713235D01*
X81958103Y-70873271D01*
X82003939Y-70959025D01*
X82055694Y-71055851D01*
X82055695Y-71055854D01*
X82115793Y-71253968D01*
X82136085Y-71460000D01*
X82115793Y-71666032D01*
X82055695Y-71864146D01*
X82055694Y-71864149D01*
X82003939Y-71960975D01*
X81958103Y-72046729D01*
X81826765Y-72206765D01*
X81666729Y-72338103D01*
X81580975Y-72383939D01*
X81484149Y-72435694D01*
X81484146Y-72435695D01*
X81286032Y-72495793D01*
X81183097Y-72505931D01*
X81131631Y-72511000D01*
X81028369Y-72511000D01*
X80976903Y-72505931D01*
X80873968Y-72495793D01*
X80675854Y-72435695D01*
X80675851Y-72435694D01*
X80579025Y-72383939D01*
X80493271Y-72338103D01*
X80333235Y-72206765D01*
X80201897Y-72046729D01*
X80156061Y-71960975D01*
X80104306Y-71864149D01*
X80104305Y-71864146D01*
X80044207Y-71666032D01*
X80023915Y-71460000D01*
X80044207Y-71253968D01*
X80104305Y-71055854D01*
X80104306Y-71055851D01*
X80156061Y-70959025D01*
X80201897Y-70873271D01*
X80333235Y-70713235D01*
X80493271Y-70581897D01*
X80579025Y-70536061D01*
X80675851Y-70484306D01*
X80675854Y-70484305D01*
X80873968Y-70424207D01*
X80976903Y-70414069D01*
X81028369Y-70409000D01*
X81131631Y-70409000D01*
X81183097Y-70414069D01*
X81183097Y-70414069D01*
G37*
G36*
X83723097Y-70414069D02*
G01*
X83826032Y-70424207D01*
X84024146Y-70484305D01*
X84024149Y-70484306D01*
X84120975Y-70536061D01*
X84206729Y-70581897D01*
X84366765Y-70713235D01*
X84498103Y-70873271D01*
X84543939Y-70959025D01*
X84595694Y-71055851D01*
X84595695Y-71055854D01*
X84655793Y-71253968D01*
X84676085Y-71460000D01*
X84655793Y-71666032D01*
X84595695Y-71864146D01*
X84595694Y-71864149D01*
X84543939Y-71960975D01*
X84498103Y-72046729D01*
X84366765Y-72206765D01*
X84206729Y-72338103D01*
X84120975Y-72383939D01*
X84024149Y-72435694D01*
X84024146Y-72435695D01*
X83826032Y-72495793D01*
X83723097Y-72505931D01*
X83671631Y-72511000D01*
X83568369Y-72511000D01*
X83516903Y-72505931D01*
X83413968Y-72495793D01*
X83215854Y-72435695D01*
X83215851Y-72435694D01*
X83119025Y-72383939D01*
X83033271Y-72338103D01*
X82873235Y-72206765D01*
X82741897Y-72046729D01*
X82696061Y-71960975D01*
X82644306Y-71864149D01*
X82644305Y-71864146D01*
X82584207Y-71666032D01*
X82563915Y-71460000D01*
X82584207Y-71253968D01*
X82644305Y-71055854D01*
X82644306Y-71055851D01*
X82696061Y-70959025D01*
X82741897Y-70873271D01*
X82873235Y-70713235D01*
X83033271Y-70581897D01*
X83119025Y-70536061D01*
X83215851Y-70484306D01*
X83215854Y-70484305D01*
X83413968Y-70424207D01*
X83516903Y-70414069D01*
X83568369Y-70409000D01*
X83671631Y-70409000D01*
X83723097Y-70414069D01*
X83723097Y-70414069D01*
G37*
G36*
X94643097Y-70414069D02*
G01*
X94746032Y-70424207D01*
X94944146Y-70484305D01*
X94944149Y-70484306D01*
X95040975Y-70536061D01*
X95126729Y-70581897D01*
X95286765Y-70713235D01*
X95418103Y-70873271D01*
X95463939Y-70959025D01*
X95515694Y-71055851D01*
X95515695Y-71055854D01*
X95575793Y-71253968D01*
X95596085Y-71460000D01*
X95575793Y-71666032D01*
X95515695Y-71864146D01*
X95515694Y-71864149D01*
X95463939Y-71960975D01*
X95418103Y-72046729D01*
X95286765Y-72206765D01*
X95126729Y-72338103D01*
X95040975Y-72383939D01*
X94944149Y-72435694D01*
X94944146Y-72435695D01*
X94746032Y-72495793D01*
X94643097Y-72505931D01*
X94591631Y-72511000D01*
X94488369Y-72511000D01*
X94436903Y-72505931D01*
X94333968Y-72495793D01*
X94135854Y-72435695D01*
X94135851Y-72435694D01*
X94039025Y-72383939D01*
X93953271Y-72338103D01*
X93793235Y-72206765D01*
X93661897Y-72046729D01*
X93616061Y-71960975D01*
X93564306Y-71864149D01*
X93564305Y-71864146D01*
X93504207Y-71666032D01*
X93483915Y-71460000D01*
X93504207Y-71253968D01*
X93564305Y-71055854D01*
X93564306Y-71055851D01*
X93616061Y-70959025D01*
X93661897Y-70873271D01*
X93793235Y-70713235D01*
X93953271Y-70581897D01*
X94039025Y-70536061D01*
X94135851Y-70484306D01*
X94135854Y-70484305D01*
X94333968Y-70424207D01*
X94436903Y-70414069D01*
X94488369Y-70409000D01*
X94591631Y-70409000D01*
X94643097Y-70414069D01*
X94643097Y-70414069D01*
G37*
G36*
X97183097Y-70414069D02*
G01*
X97286032Y-70424207D01*
X97484146Y-70484305D01*
X97484149Y-70484306D01*
X97580975Y-70536061D01*
X97666729Y-70581897D01*
X97826765Y-70713235D01*
X97958103Y-70873271D01*
X98003939Y-70959025D01*
X98055694Y-71055851D01*
X98055695Y-71055854D01*
X98115793Y-71253968D01*
X98136085Y-71460000D01*
X98115793Y-71666032D01*
X98055695Y-71864146D01*
X98055694Y-71864149D01*
X98003939Y-71960975D01*
X97958103Y-72046729D01*
X97826765Y-72206765D01*
X97666729Y-72338103D01*
X97580975Y-72383939D01*
X97484149Y-72435694D01*
X97484146Y-72435695D01*
X97286032Y-72495793D01*
X97183097Y-72505931D01*
X97131631Y-72511000D01*
X97028369Y-72511000D01*
X96976903Y-72505931D01*
X96873968Y-72495793D01*
X96675854Y-72435695D01*
X96675851Y-72435694D01*
X96579025Y-72383939D01*
X96493271Y-72338103D01*
X96333235Y-72206765D01*
X96201897Y-72046729D01*
X96156061Y-71960975D01*
X96104306Y-71864149D01*
X96104305Y-71864146D01*
X96044207Y-71666032D01*
X96023915Y-71460000D01*
X96044207Y-71253968D01*
X96104305Y-71055854D01*
X96104306Y-71055851D01*
X96156061Y-70959025D01*
X96201897Y-70873271D01*
X96333235Y-70713235D01*
X96493271Y-70581897D01*
X96579025Y-70536061D01*
X96675851Y-70484306D01*
X96675854Y-70484305D01*
X96873968Y-70424207D01*
X96976903Y-70414069D01*
X97028369Y-70409000D01*
X97131631Y-70409000D01*
X97183097Y-70414069D01*
X97183097Y-70414069D01*
G37*
G36*
X92103097Y-70414069D02*
G01*
X92206032Y-70424207D01*
X92404146Y-70484305D01*
X92404149Y-70484306D01*
X92500975Y-70536061D01*
X92586729Y-70581897D01*
X92746765Y-70713235D01*
X92878103Y-70873271D01*
X92923939Y-70959025D01*
X92975694Y-71055851D01*
X92975695Y-71055854D01*
X93035793Y-71253968D01*
X93056085Y-71460000D01*
X93035793Y-71666032D01*
X92975695Y-71864146D01*
X92975694Y-71864149D01*
X92923939Y-71960975D01*
X92878103Y-72046729D01*
X92746765Y-72206765D01*
X92586729Y-72338103D01*
X92500975Y-72383939D01*
X92404149Y-72435694D01*
X92404146Y-72435695D01*
X92206032Y-72495793D01*
X92103097Y-72505931D01*
X92051631Y-72511000D01*
X91948369Y-72511000D01*
X91896903Y-72505931D01*
X91793968Y-72495793D01*
X91595854Y-72435695D01*
X91595851Y-72435694D01*
X91499025Y-72383939D01*
X91413271Y-72338103D01*
X91253235Y-72206765D01*
X91121897Y-72046729D01*
X91076061Y-71960975D01*
X91024306Y-71864149D01*
X91024305Y-71864146D01*
X90964207Y-71666032D01*
X90943915Y-71460000D01*
X90964207Y-71253968D01*
X91024305Y-71055854D01*
X91024306Y-71055851D01*
X91076061Y-70959025D01*
X91121897Y-70873271D01*
X91253235Y-70713235D01*
X91413271Y-70581897D01*
X91499025Y-70536061D01*
X91595851Y-70484306D01*
X91595854Y-70484305D01*
X91793968Y-70424207D01*
X91896903Y-70414069D01*
X91948369Y-70409000D01*
X92051631Y-70409000D01*
X92103097Y-70414069D01*
X92103097Y-70414069D01*
G37*
G36*
X99723097Y-70414069D02*
G01*
X99826032Y-70424207D01*
X100024146Y-70484305D01*
X100024149Y-70484306D01*
X100120975Y-70536061D01*
X100206729Y-70581897D01*
X100366765Y-70713235D01*
X100498103Y-70873271D01*
X100543939Y-70959025D01*
X100595694Y-71055851D01*
X100595695Y-71055854D01*
X100655793Y-71253968D01*
X100676085Y-71460000D01*
X100655793Y-71666032D01*
X100595695Y-71864146D01*
X100595694Y-71864149D01*
X100543939Y-71960975D01*
X100498103Y-72046729D01*
X100366765Y-72206765D01*
X100206729Y-72338103D01*
X100120975Y-72383939D01*
X100024149Y-72435694D01*
X100024146Y-72435695D01*
X99826032Y-72495793D01*
X99723097Y-72505931D01*
X99671631Y-72511000D01*
X99568369Y-72511000D01*
X99516903Y-72505931D01*
X99413968Y-72495793D01*
X99215854Y-72435695D01*
X99215851Y-72435694D01*
X99119025Y-72383939D01*
X99033271Y-72338103D01*
X98873235Y-72206765D01*
X98741897Y-72046729D01*
X98696061Y-71960975D01*
X98644306Y-71864149D01*
X98644305Y-71864146D01*
X98584207Y-71666032D01*
X98563915Y-71460000D01*
X98584207Y-71253968D01*
X98644305Y-71055854D01*
X98644306Y-71055851D01*
X98696061Y-70959025D01*
X98741897Y-70873271D01*
X98873235Y-70713235D01*
X99033271Y-70581897D01*
X99119025Y-70536061D01*
X99215851Y-70484306D01*
X99215854Y-70484305D01*
X99413968Y-70424207D01*
X99516903Y-70414069D01*
X99568369Y-70409000D01*
X99671631Y-70409000D01*
X99723097Y-70414069D01*
X99723097Y-70414069D01*
G37*
G36*
X125643097Y-70414069D02*
G01*
X125746032Y-70424207D01*
X125944146Y-70484305D01*
X125944149Y-70484306D01*
X126040975Y-70536061D01*
X126126729Y-70581897D01*
X126286765Y-70713235D01*
X126418103Y-70873271D01*
X126463939Y-70959025D01*
X126515694Y-71055851D01*
X126515695Y-71055854D01*
X126575793Y-71253968D01*
X126596085Y-71460000D01*
X126575793Y-71666032D01*
X126515695Y-71864146D01*
X126515694Y-71864149D01*
X126463939Y-71960975D01*
X126418103Y-72046729D01*
X126286765Y-72206765D01*
X126126729Y-72338103D01*
X126040975Y-72383939D01*
X125944149Y-72435694D01*
X125944146Y-72435695D01*
X125746032Y-72495793D01*
X125643097Y-72505931D01*
X125591631Y-72511000D01*
X125488369Y-72511000D01*
X125436903Y-72505931D01*
X125333968Y-72495793D01*
X125135854Y-72435695D01*
X125135851Y-72435694D01*
X125039025Y-72383939D01*
X124953271Y-72338103D01*
X124793235Y-72206765D01*
X124661897Y-72046729D01*
X124616061Y-71960975D01*
X124564306Y-71864149D01*
X124564305Y-71864146D01*
X124504207Y-71666032D01*
X124483915Y-71460000D01*
X124504207Y-71253968D01*
X124564305Y-71055854D01*
X124564306Y-71055851D01*
X124616061Y-70959025D01*
X124661897Y-70873271D01*
X124793235Y-70713235D01*
X124953271Y-70581897D01*
X125039025Y-70536061D01*
X125135851Y-70484306D01*
X125135854Y-70484305D01*
X125333968Y-70424207D01*
X125436903Y-70414069D01*
X125488369Y-70409000D01*
X125591631Y-70409000D01*
X125643097Y-70414069D01*
X125643097Y-70414069D01*
G37*
G36*
X128183097Y-70414069D02*
G01*
X128286032Y-70424207D01*
X128484146Y-70484305D01*
X128484149Y-70484306D01*
X128580975Y-70536061D01*
X128666729Y-70581897D01*
X128826765Y-70713235D01*
X128958103Y-70873271D01*
X129003939Y-70959025D01*
X129055694Y-71055851D01*
X129055695Y-71055854D01*
X129115793Y-71253968D01*
X129136085Y-71460000D01*
X129115793Y-71666032D01*
X129055695Y-71864146D01*
X129055694Y-71864149D01*
X129003939Y-71960975D01*
X128958103Y-72046729D01*
X128826765Y-72206765D01*
X128666729Y-72338103D01*
X128580975Y-72383939D01*
X128484149Y-72435694D01*
X128484146Y-72435695D01*
X128286032Y-72495793D01*
X128183097Y-72505931D01*
X128131631Y-72511000D01*
X128028369Y-72511000D01*
X127976903Y-72505931D01*
X127873968Y-72495793D01*
X127675854Y-72435695D01*
X127675851Y-72435694D01*
X127579025Y-72383939D01*
X127493271Y-72338103D01*
X127333235Y-72206765D01*
X127201897Y-72046729D01*
X127156061Y-71960975D01*
X127104306Y-71864149D01*
X127104305Y-71864146D01*
X127044207Y-71666032D01*
X127023915Y-71460000D01*
X127044207Y-71253968D01*
X127104305Y-71055854D01*
X127104306Y-71055851D01*
X127156061Y-70959025D01*
X127201897Y-70873271D01*
X127333235Y-70713235D01*
X127493271Y-70581897D01*
X127579025Y-70536061D01*
X127675851Y-70484306D01*
X127675854Y-70484305D01*
X127873968Y-70424207D01*
X127976903Y-70414069D01*
X128028369Y-70409000D01*
X128131631Y-70409000D01*
X128183097Y-70414069D01*
X128183097Y-70414069D01*
G37*
G36*
X123103097Y-70414069D02*
G01*
X123206032Y-70424207D01*
X123404146Y-70484305D01*
X123404149Y-70484306D01*
X123500975Y-70536061D01*
X123586729Y-70581897D01*
X123746765Y-70713235D01*
X123878103Y-70873271D01*
X123923939Y-70959025D01*
X123975694Y-71055851D01*
X123975695Y-71055854D01*
X124035793Y-71253968D01*
X124056085Y-71460000D01*
X124035793Y-71666032D01*
X123975695Y-71864146D01*
X123975694Y-71864149D01*
X123923939Y-71960975D01*
X123878103Y-72046729D01*
X123746765Y-72206765D01*
X123586729Y-72338103D01*
X123500975Y-72383939D01*
X123404149Y-72435694D01*
X123404146Y-72435695D01*
X123206032Y-72495793D01*
X123103097Y-72505931D01*
X123051631Y-72511000D01*
X122948369Y-72511000D01*
X122896903Y-72505931D01*
X122793968Y-72495793D01*
X122595854Y-72435695D01*
X122595851Y-72435694D01*
X122499025Y-72383939D01*
X122413271Y-72338103D01*
X122253235Y-72206765D01*
X122121897Y-72046729D01*
X122076061Y-71960975D01*
X122024306Y-71864149D01*
X122024305Y-71864146D01*
X121964207Y-71666032D01*
X121943915Y-71460000D01*
X121964207Y-71253968D01*
X122024305Y-71055854D01*
X122024306Y-71055851D01*
X122076061Y-70959025D01*
X122121897Y-70873271D01*
X122253235Y-70713235D01*
X122413271Y-70581897D01*
X122499025Y-70536061D01*
X122595851Y-70484306D01*
X122595854Y-70484305D01*
X122793968Y-70424207D01*
X122896903Y-70414069D01*
X122948369Y-70409000D01*
X123051631Y-70409000D01*
X123103097Y-70414069D01*
X123103097Y-70414069D01*
G37*
G36*
X115723097Y-70414069D02*
G01*
X115826032Y-70424207D01*
X116024146Y-70484305D01*
X116024149Y-70484306D01*
X116120975Y-70536061D01*
X116206729Y-70581897D01*
X116366765Y-70713235D01*
X116498103Y-70873271D01*
X116543939Y-70959025D01*
X116595694Y-71055851D01*
X116595695Y-71055854D01*
X116655793Y-71253968D01*
X116676085Y-71460000D01*
X116655793Y-71666032D01*
X116595695Y-71864146D01*
X116595694Y-71864149D01*
X116543939Y-71960975D01*
X116498103Y-72046729D01*
X116366765Y-72206765D01*
X116206729Y-72338103D01*
X116120975Y-72383939D01*
X116024149Y-72435694D01*
X116024146Y-72435695D01*
X115826032Y-72495793D01*
X115723097Y-72505931D01*
X115671631Y-72511000D01*
X115568369Y-72511000D01*
X115516903Y-72505931D01*
X115413968Y-72495793D01*
X115215854Y-72435695D01*
X115215851Y-72435694D01*
X115119025Y-72383939D01*
X115033271Y-72338103D01*
X114873235Y-72206765D01*
X114741897Y-72046729D01*
X114696061Y-71960975D01*
X114644306Y-71864149D01*
X114644305Y-71864146D01*
X114584207Y-71666032D01*
X114563915Y-71460000D01*
X114584207Y-71253968D01*
X114644305Y-71055854D01*
X114644306Y-71055851D01*
X114696061Y-70959025D01*
X114741897Y-70873271D01*
X114873235Y-70713235D01*
X115033271Y-70581897D01*
X115119025Y-70536061D01*
X115215851Y-70484306D01*
X115215854Y-70484305D01*
X115413968Y-70424207D01*
X115516903Y-70414069D01*
X115568369Y-70409000D01*
X115671631Y-70409000D01*
X115723097Y-70414069D01*
X115723097Y-70414069D01*
G37*
G36*
X113183097Y-70414069D02*
G01*
X113286032Y-70424207D01*
X113484146Y-70484305D01*
X113484149Y-70484306D01*
X113580975Y-70536061D01*
X113666729Y-70581897D01*
X113826765Y-70713235D01*
X113958103Y-70873271D01*
X114003939Y-70959025D01*
X114055694Y-71055851D01*
X114055695Y-71055854D01*
X114115793Y-71253968D01*
X114136085Y-71460000D01*
X114115793Y-71666032D01*
X114055695Y-71864146D01*
X114055694Y-71864149D01*
X114003939Y-71960975D01*
X113958103Y-72046729D01*
X113826765Y-72206765D01*
X113666729Y-72338103D01*
X113580975Y-72383939D01*
X113484149Y-72435694D01*
X113484146Y-72435695D01*
X113286032Y-72495793D01*
X113183097Y-72505931D01*
X113131631Y-72511000D01*
X113028369Y-72511000D01*
X112976903Y-72505931D01*
X112873968Y-72495793D01*
X112675854Y-72435695D01*
X112675851Y-72435694D01*
X112579025Y-72383939D01*
X112493271Y-72338103D01*
X112333235Y-72206765D01*
X112201897Y-72046729D01*
X112156061Y-71960975D01*
X112104306Y-71864149D01*
X112104305Y-71864146D01*
X112044207Y-71666032D01*
X112023915Y-71460000D01*
X112044207Y-71253968D01*
X112104305Y-71055854D01*
X112104306Y-71055851D01*
X112156061Y-70959025D01*
X112201897Y-70873271D01*
X112333235Y-70713235D01*
X112493271Y-70581897D01*
X112579025Y-70536061D01*
X112675851Y-70484306D01*
X112675854Y-70484305D01*
X112873968Y-70424207D01*
X112976903Y-70414069D01*
X113028369Y-70409000D01*
X113131631Y-70409000D01*
X113183097Y-70414069D01*
X113183097Y-70414069D01*
G37*
G36*
X110643097Y-70414069D02*
G01*
X110746032Y-70424207D01*
X110944146Y-70484305D01*
X110944149Y-70484306D01*
X111040975Y-70536061D01*
X111126729Y-70581897D01*
X111286765Y-70713235D01*
X111418103Y-70873271D01*
X111463939Y-70959025D01*
X111515694Y-71055851D01*
X111515695Y-71055854D01*
X111575793Y-71253968D01*
X111596085Y-71460000D01*
X111575793Y-71666032D01*
X111515695Y-71864146D01*
X111515694Y-71864149D01*
X111463939Y-71960975D01*
X111418103Y-72046729D01*
X111286765Y-72206765D01*
X111126729Y-72338103D01*
X111040975Y-72383939D01*
X110944149Y-72435694D01*
X110944146Y-72435695D01*
X110746032Y-72495793D01*
X110643097Y-72505931D01*
X110591631Y-72511000D01*
X110488369Y-72511000D01*
X110436903Y-72505931D01*
X110333968Y-72495793D01*
X110135854Y-72435695D01*
X110135851Y-72435694D01*
X110039025Y-72383939D01*
X109953271Y-72338103D01*
X109793235Y-72206765D01*
X109661897Y-72046729D01*
X109616061Y-71960975D01*
X109564306Y-71864149D01*
X109564305Y-71864146D01*
X109504207Y-71666032D01*
X109483915Y-71460000D01*
X109504207Y-71253968D01*
X109564305Y-71055854D01*
X109564306Y-71055851D01*
X109616061Y-70959025D01*
X109661897Y-70873271D01*
X109793235Y-70713235D01*
X109953271Y-70581897D01*
X110039025Y-70536061D01*
X110135851Y-70484306D01*
X110135854Y-70484305D01*
X110333968Y-70424207D01*
X110436903Y-70414069D01*
X110488369Y-70409000D01*
X110591631Y-70409000D01*
X110643097Y-70414069D01*
X110643097Y-70414069D01*
G37*
G36*
X130723097Y-70414069D02*
G01*
X130826032Y-70424207D01*
X131024146Y-70484305D01*
X131024149Y-70484306D01*
X131120975Y-70536061D01*
X131206729Y-70581897D01*
X131366765Y-70713235D01*
X131498103Y-70873271D01*
X131543939Y-70959025D01*
X131595694Y-71055851D01*
X131595695Y-71055854D01*
X131655793Y-71253968D01*
X131676085Y-71460000D01*
X131655793Y-71666032D01*
X131595695Y-71864146D01*
X131595694Y-71864149D01*
X131543939Y-71960975D01*
X131498103Y-72046729D01*
X131366765Y-72206765D01*
X131206729Y-72338103D01*
X131120975Y-72383939D01*
X131024149Y-72435694D01*
X131024146Y-72435695D01*
X130826032Y-72495793D01*
X130723097Y-72505931D01*
X130671631Y-72511000D01*
X130568369Y-72511000D01*
X130516903Y-72505931D01*
X130413968Y-72495793D01*
X130215854Y-72435695D01*
X130215851Y-72435694D01*
X130119025Y-72383939D01*
X130033271Y-72338103D01*
X129873235Y-72206765D01*
X129741897Y-72046729D01*
X129696061Y-71960975D01*
X129644306Y-71864149D01*
X129644305Y-71864146D01*
X129584207Y-71666032D01*
X129563915Y-71460000D01*
X129584207Y-71253968D01*
X129644305Y-71055854D01*
X129644306Y-71055851D01*
X129696061Y-70959025D01*
X129741897Y-70873271D01*
X129873235Y-70713235D01*
X130033271Y-70581897D01*
X130119025Y-70536061D01*
X130215851Y-70484306D01*
X130215854Y-70484305D01*
X130413968Y-70424207D01*
X130516903Y-70414069D01*
X130568369Y-70409000D01*
X130671631Y-70409000D01*
X130723097Y-70414069D01*
X130723097Y-70414069D01*
G37*
G36*
X108103097Y-70414069D02*
G01*
X108206032Y-70424207D01*
X108404146Y-70484305D01*
X108404149Y-70484306D01*
X108500975Y-70536061D01*
X108586729Y-70581897D01*
X108746765Y-70713235D01*
X108878103Y-70873271D01*
X108923939Y-70959025D01*
X108975694Y-71055851D01*
X108975695Y-71055854D01*
X109035793Y-71253968D01*
X109056085Y-71460000D01*
X109035793Y-71666032D01*
X108975695Y-71864146D01*
X108975694Y-71864149D01*
X108923939Y-71960975D01*
X108878103Y-72046729D01*
X108746765Y-72206765D01*
X108586729Y-72338103D01*
X108500975Y-72383939D01*
X108404149Y-72435694D01*
X108404146Y-72435695D01*
X108206032Y-72495793D01*
X108103097Y-72505931D01*
X108051631Y-72511000D01*
X107948369Y-72511000D01*
X107896903Y-72505931D01*
X107793968Y-72495793D01*
X107595854Y-72435695D01*
X107595851Y-72435694D01*
X107499025Y-72383939D01*
X107413271Y-72338103D01*
X107253235Y-72206765D01*
X107121897Y-72046729D01*
X107076061Y-71960975D01*
X107024306Y-71864149D01*
X107024305Y-71864146D01*
X106964207Y-71666032D01*
X106943915Y-71460000D01*
X106964207Y-71253968D01*
X107024305Y-71055854D01*
X107024306Y-71055851D01*
X107076061Y-70959025D01*
X107121897Y-70873271D01*
X107253235Y-70713235D01*
X107413271Y-70581897D01*
X107499025Y-70536061D01*
X107595851Y-70484306D01*
X107595854Y-70484305D01*
X107793968Y-70424207D01*
X107896903Y-70414069D01*
X107948369Y-70409000D01*
X108051631Y-70409000D01*
X108103097Y-70414069D01*
X108103097Y-70414069D01*
G37*
M02*
