solid 
   facet normal -3.571963e-017 0.000000e+000 1.000000e+000
      outer loop
         vertex 7.000000e+000 3.350000e+001 2.143061e-016
         vertex 3.600000e+001 3.350000e+001 1.250175e-015
         vertex 7.000000e+000 3.650000e+001 2.143061e-016
      endloop
   endfacet
   facet normal -3.571963e-017 0.000000e+000 1.000000e+000
      outer loop
         vertex 7.000000e+000 3.650000e+001 2.143061e-016
         vertex 3.600000e+001 3.350000e+001 1.250175e-015
         vertex 3.600000e+001 3.650000e+001 1.250175e-015
      endloop
   endfacet
   facet normal 1.000000e+000 -0.000000e+000 0.000000e+000
      outer loop
         vertex 3.600000e+001 3.650000e+001 1.250175e-015
         vertex 3.600000e+001 3.350000e+001 1.250175e-015
         vertex 3.600000e+001 3.000000e+000 1.102146e-015
      endloop
   endfacet
   facet normal 1.555556e-016 -4.418797e-018 1.000000e+000
      outer loop
         vertex 3.600000e+001 3.650000e+001 1.250175e-015
         vertex 3.600000e+001 3.000000e+000 1.102146e-015
         vertex 4.300000e+001 0.000000e+000 0.000000e+000
      endloop
   endfacet
   facet normal 0.000000e+000 -3.673819e-016 1.000000e+000
      outer loop
         vertex 4.300000e+001 0.000000e+000 0.000000e+000
         vertex 3.600000e+001 3.000000e+000 1.102146e-015
         vertex 0.000000e+000 0.000000e+000 0.000000e+000
      endloop
   endfacet
   facet normal -3.061516e-017 0.000000e+000 1.000000e+000
      outer loop
         vertex 0.000000e+000 0.000000e+000 0.000000e+000
         vertex 3.600000e+001 3.000000e+000 1.102146e-015
         vertex 7.000000e+000 3.000000e+000 2.143061e-016
      endloop
   endfacet
   facet normal -3.061516e-017 0.000000e+000 1.000000e+000
      outer loop
         vertex 0.000000e+000 0.000000e+000 0.000000e+000
         vertex 7.000000e+000 3.000000e+000 2.143061e-016
         vertex 0.000000e+000 8.800000e+001 0.000000e+000
      endloop
   endfacet
   facet normal -3.061516e-017 0.000000e+000 1.000000e+000
      outer loop
         vertex 0.000000e+000 8.800000e+001 0.000000e+000
         vertex 7.000000e+000 3.000000e+000 2.143061e-016
         vertex 7.000000e+000 3.350000e+001 2.143061e-016
      endloop
   endfacet
   facet normal -3.061516e-017 0.000000e+000 1.000000e+000
      outer loop
         vertex 0.000000e+000 8.800000e+001 0.000000e+000
         vertex 7.000000e+000 3.350000e+001 2.143061e-016
         vertex 7.000000e+000 3.650000e+001 2.143061e-016
      endloop
   endfacet
   facet normal 0.000000e+000 4.161284e-018 1.000000e+000
      outer loop
         vertex 0.000000e+000 8.800000e+001 0.000000e+000
         vertex 7.000000e+000 3.650000e+001 2.143061e-016
         vertex 7.000000e+000 8.800000e+001 0.000000e+000
      endloop
   endfacet
   facet normal -1.000000e+000 0.000000e+000 0.000000e+000
      outer loop
         vertex 7.000000e+000 8.800000e+001 0.000000e+000
         vertex 7.000000e+000 3.650000e+001 2.143061e-016
         vertex 7.000000e+000 7.000000e+001 2.143061e-016
      endloop
   endfacet
   facet normal 0.000000e+000 0.000000e+000 0.000000e+000
      outer loop
         vertex 7.000000e+000 7.000000e+001 2.143061e-016
         vertex 7.000000e+000 3.650000e+001 2.143061e-016
         vertex 7.000000e+000 6.700000e+001 2.143061e-016
      endloop
   endfacet
   facet normal -3.061516e-017 0.000000e+000 1.000000e+000
      outer loop
         vertex 7.000000e+000 7.000000e+001 2.143061e-016
         vertex 7.000000e+000 6.700000e+001 2.143061e-016
         vertex 3.600000e+001 7.000000e+001 1.102146e-015
      endloop
   endfacet
   facet normal -3.061516e-017 0.000000e+000 1.000000e+000
      outer loop
         vertex 3.600000e+001 7.000000e+001 1.102146e-015
         vertex 7.000000e+000 6.700000e+001 2.143061e-016
         vertex 3.600000e+001 6.700000e+001 1.102146e-015
      endloop
   endfacet
   facet normal -1.000000e+000 0.000000e+000 0.000000e+000
      outer loop
         vertex 3.600000e+001 7.000000e+001 1.102146e-015
         vertex 3.600000e+001 6.700000e+001 1.102146e-015
         vertex 3.600000e+001 3.650000e+001 1.250175e-015
      endloop
   endfacet
   facet normal 1.460868e-016 4.418797e-018 1.000000e+000
      outer loop
         vertex 3.600000e+001 7.000000e+001 1.102146e-015
         vertex 3.600000e+001 3.650000e+001 1.250175e-015
         vertex 4.300000e+001 8.800000e+001 0.000000e+000
      endloop
   endfacet
   facet normal 1.785965e-016 0.000000e+000 1.000000e+000
      outer loop
         vertex 4.300000e+001 8.800000e+001 0.000000e+000
         vertex 3.600000e+001 3.650000e+001 1.250175e-015
         vertex 4.300000e+001 0.000000e+000 0.000000e+000
      endloop
   endfacet
   facet normal -0.000000e+000 6.123032e-017 1.000000e+000
      outer loop
         vertex 4.300000e+001 8.800000e+001 0.000000e+000
         vertex 3.600000e+001 8.800000e+001 0.000000e+000
         vertex 3.600000e+001 7.000000e+001 1.102146e-015
      endloop
   endfacet
   facet normal 0.000000e+000 0.000000e+000 -1.000000e+000
      outer loop
         vertex 1.803145e-015 3.000000e+000 -7.000000e+000
         vertex 1.692123e-015 3.350000e+001 -7.000000e+000
         vertex 7.000000e+000 3.000000e+000 -7.000000e+000
      endloop
   endfacet
   facet normal 0.000000e+000 0.000000e+000 -1.000000e+000
      outer loop
         vertex 7.000000e+000 3.000000e+000 -7.000000e+000
         vertex 1.692123e-015 3.350000e+001 -7.000000e+000
         vertex 7.000000e+000 3.350000e+001 -7.000000e+000
      endloop
   endfacet
   facet normal 0.000000e+000 1.000000e+000 0.000000e+000
      outer loop
         vertex 0.000000e+000 8.800000e+001 0.000000e+000
         vertex 7.000000e+000 8.800000e+001 0.000000e+000
         vertex 0.000000e+000 8.800000e+001 -7.000000e+000
      endloop
   endfacet
   facet normal 0.000000e+000 1.000000e+000 0.000000e+000
      outer loop
         vertex 0.000000e+000 8.800000e+001 -7.000000e+000
         vertex 7.000000e+000 8.800000e+001 0.000000e+000
         vertex 7.000000e+000 8.800000e+001 -7.000000e+000
      endloop
   endfacet
   facet normal 0.000000e+000 0.000000e+000 -1.000000e+000
      outer loop
         vertex 7.000000e+000 6.700000e+001 -7.000000e+000
         vertex 7.000000e+000 3.650000e+001 -7.000000e+000
         vertex 1.803145e-015 6.700000e+001 -7.000000e+000
      endloop
   endfacet
   facet normal 0.000000e+000 0.000000e+000 -1.000000e+000
      outer loop
         vertex 1.803145e-015 6.700000e+001 -7.000000e+000
         vertex 7.000000e+000 3.650000e+001 -7.000000e+000
         vertex 1.692123e-015 3.650000e+001 -7.000000e+000
      endloop
   endfacet
   facet normal 1.000000e+000 0.000000e+000 0.000000e+000
      outer loop
         vertex 7.000000e+000 8.800000e+001 0.000000e+000
         vertex 7.000000e+000 7.000000e+001 2.143061e-016
         vertex 7.000000e+000 8.800000e+001 -7.000000e+000
      endloop
   endfacet
   facet normal 1.000000e+000 0.000000e+000 0.000000e+000
      outer loop
         vertex 7.000000e+000 8.800000e+001 -7.000000e+000
         vertex 7.000000e+000 7.000000e+001 2.143061e-016
         vertex 7.000000e+000 7.000000e+001 -7.000000e+000
      endloop
   endfacet
   facet normal 1.000000e+000 -0.000000e+000 0.000000e+000
      outer loop
         vertex 7.000000e+000 6.700000e+001 2.143061e-016
         vertex 7.000000e+000 3.650000e+001 2.143061e-016
         vertex 7.000000e+000 6.700000e+001 -7.000000e+000
      endloop
   endfacet
   facet normal 1.000000e+000 0.000000e+000 0.000000e+000
      outer loop
         vertex 7.000000e+000 6.700000e+001 -7.000000e+000
         vertex 7.000000e+000 3.650000e+001 2.143061e-016
         vertex 7.000000e+000 3.650000e+001 -7.000000e+000
      endloop
   endfacet
   facet normal 0.000000e+000 0.000000e+000 -1.000000e+000
      outer loop
         vertex 3.600000e+001 3.000000e+000 -7.000000e+000
         vertex 3.600000e+001 3.350000e+001 -7.000000e+000
         vertex 4.000000e+001 3.000000e+000 -7.000000e+000
      endloop
   endfacet
   facet normal 0.000000e+000 0.000000e+000 -1.000000e+000
      outer loop
         vertex 4.000000e+001 3.000000e+000 -7.000000e+000
         vertex 3.600000e+001 3.350000e+001 -7.000000e+000
         vertex 4.000000e+001 3.350000e+001 -7.000000e+000
      endloop
   endfacet
   facet normal 0.000000e+000 0.000000e+000 -1.000000e+000
      outer loop
         vertex 4.300000e+001 7.000000e+001 -7.000000e+000
         vertex 3.600000e+001 7.000000e+001 -7.000000e+000
         vertex 4.300000e+001 8.800000e+001 -7.000000e+000
      endloop
   endfacet
   facet normal 0.000000e+000 0.000000e+000 -1.000000e+000
      outer loop
         vertex 4.300000e+001 8.800000e+001 -7.000000e+000
         vertex 3.600000e+001 7.000000e+001 -7.000000e+000
         vertex 3.600000e+001 8.800000e+001 -7.000000e+000
      endloop
   endfacet
   facet normal 1.000000e+000 0.000000e+000 0.000000e+000
      outer loop
         vertex 4.300000e+001 0.000000e+000 0.000000e+000
         vertex 4.300000e+001 0.000000e+000 -7.000000e+000
         vertex 4.300000e+001 8.800000e+001 0.000000e+000
      endloop
   endfacet
   facet normal 1.000000e+000 0.000000e+000 0.000000e+000
      outer loop
         vertex 4.300000e+001 8.800000e+001 0.000000e+000
         vertex 4.300000e+001 0.000000e+000 -7.000000e+000
         vertex 4.300000e+001 7.000000e+001 -7.000000e+000
      endloop
   endfacet
   facet normal 1.000000e+000 0.000000e+000 0.000000e+000
      outer loop
         vertex 4.300000e+001 8.800000e+001 0.000000e+000
         vertex 4.300000e+001 7.000000e+001 -7.000000e+000
         vertex 4.300000e+001 8.800000e+001 -7.000000e+000
      endloop
   endfacet
   facet normal 0.000000e+000 -1.000000e+000 0.000000e+000
      outer loop
         vertex 4.300000e+001 0.000000e+000 0.000000e+000
         vertex 0.000000e+000 0.000000e+000 0.000000e+000
         vertex 4.300000e+001 0.000000e+000 -7.000000e+000
      endloop
   endfacet
   facet normal 0.000000e+000 -1.000000e+000 0.000000e+000
      outer loop
         vertex 4.300000e+001 0.000000e+000 -7.000000e+000
         vertex 0.000000e+000 0.000000e+000 0.000000e+000
         vertex 2.404194e-015 0.000000e+000 -7.000000e+000
      endloop
   endfacet
   facet normal 0.000000e+000 -1.000000e+000 0.000000e+000
      outer loop
         vertex 4.300000e+001 0.000000e+000 -7.000000e+000
         vertex 2.404194e-015 0.000000e+000 -7.000000e+000
         vertex 4.000000e+001 0.000000e+000 -5.700000e+001
      endloop
   endfacet
   facet normal 0.000000e+000 -1.000000e+000 0.000000e+000
      outer loop
         vertex 4.300000e+001 0.000000e+000 -7.000000e+000
         vertex 4.000000e+001 0.000000e+000 -5.700000e+001
         vertex 4.500000e+001 0.000000e+000 -5.700000e+001
      endloop
   endfacet
   facet normal 0.000000e+000 -1.000000e+000 0.000000e+000
      outer loop
         vertex 4.300000e+001 0.000000e+000 -7.000000e+000
         vertex 4.500000e+001 0.000000e+000 -5.700000e+001
         vertex 4.500000e+001 0.000000e+000 -7.000000e+000
      endloop
   endfacet
   facet normal 0.000000e+000 0.000000e+000 -1.000000e+000
      outer loop
         vertex 4.000000e+001 3.650000e+001 -7.000000e+000
         vertex 3.600000e+001 3.650000e+001 -7.000000e+000
         vertex 4.000000e+001 6.700000e+001 -7.000000e+000
      endloop
   endfacet
   facet normal 0.000000e+000 0.000000e+000 -1.000000e+000
      outer loop
         vertex 4.000000e+001 6.700000e+001 -7.000000e+000
         vertex 3.600000e+001 3.650000e+001 -7.000000e+000
         vertex 3.600000e+001 6.700000e+001 -7.000000e+000
      endloop
   endfacet
   facet normal -1.000000e+000 0.000000e+000 0.000000e+000
      outer loop
         vertex 3.600000e+001 6.700000e+001 -7.000000e+000
         vertex 3.600000e+001 3.650000e+001 -7.000000e+000
         vertex 3.600000e+001 6.700000e+001 1.102146e-015
      endloop
   endfacet
   facet normal -1.000000e+000 0.000000e+000 0.000000e+000
      outer loop
         vertex 3.600000e+001 6.700000e+001 1.102146e-015
         vertex 3.600000e+001 3.650000e+001 -7.000000e+000
         vertex 3.600000e+001 3.650000e+001 1.250175e-015
      endloop
   endfacet
   facet normal 1.000000e+000 0.000000e+000 0.000000e+000
      outer loop
         vertex 7.000000e+000 3.000000e+000 -7.000000e+000
         vertex 7.000000e+000 3.350000e+001 -7.000000e+000
         vertex 7.000000e+000 3.000000e+000 2.143061e-016
      endloop
   endfacet
   facet normal 1.000000e+000 0.000000e+000 -0.000000e+000
      outer loop
         vertex 7.000000e+000 3.000000e+000 2.143061e-016
         vertex 7.000000e+000 3.350000e+001 -7.000000e+000
         vertex 7.000000e+000 3.350000e+001 2.143061e-016
      endloop
   endfacet
   facet normal 0.000000e+000 1.000000e+000 0.000000e+000
      outer loop
         vertex 3.600000e+001 8.800000e+001 0.000000e+000
         vertex 4.300000e+001 8.800000e+001 0.000000e+000
         vertex 3.600000e+001 8.800000e+001 -7.000000e+000
      endloop
   endfacet
   facet normal 0.000000e+000 1.000000e+000 0.000000e+000
      outer loop
         vertex 3.600000e+001 8.800000e+001 -7.000000e+000
         vertex 4.300000e+001 8.800000e+001 0.000000e+000
         vertex 4.300000e+001 8.800000e+001 -7.000000e+000
      endloop
   endfacet
   facet normal -1.000000e+000 0.000000e+000 0.000000e+000
      outer loop
         vertex 3.600000e+001 8.800000e+001 -7.000000e+000
         vertex 3.600000e+001 7.000000e+001 -7.000000e+000
         vertex 3.600000e+001 8.800000e+001 0.000000e+000
      endloop
   endfacet
   facet normal -1.000000e+000 0.000000e+000 0.000000e+000
      outer loop
         vertex 3.600000e+001 8.800000e+001 0.000000e+000
         vertex 3.600000e+001 7.000000e+001 -7.000000e+000
         vertex 3.600000e+001 7.000000e+001 1.102146e-015
      endloop
   endfacet
   facet normal 0.000000e+000 0.000000e+000 -1.000000e+000
      outer loop
         vertex 7.000000e+000 8.800000e+001 -7.000000e+000
         vertex 7.000000e+000 7.000000e+001 -7.000000e+000
         vertex 0.000000e+000 8.800000e+001 -7.000000e+000
      endloop
   endfacet
   facet normal 0.000000e+000 0.000000e+000 -1.000000e+000
      outer loop
         vertex 0.000000e+000 8.800000e+001 -7.000000e+000
         vertex 7.000000e+000 7.000000e+001 -7.000000e+000
         vertex 1.803145e-015 7.000000e+001 -7.000000e+000
      endloop
   endfacet
   facet normal -1.000000e+000 0.000000e+000 0.000000e+000
      outer loop
         vertex 3.600000e+001 3.000000e+000 1.102146e-015
         vertex 3.600000e+001 3.350000e+001 1.250175e-015
         vertex 3.600000e+001 3.000000e+000 -7.000000e+000
      endloop
   endfacet
   facet normal -1.000000e+000 0.000000e+000 -0.000000e+000
      outer loop
         vertex 3.600000e+001 3.000000e+000 -7.000000e+000
         vertex 3.600000e+001 3.350000e+001 1.250175e-015
         vertex 3.600000e+001 3.350000e+001 -7.000000e+000
      endloop
   endfacet
   facet normal -1.000000e+000 -2.003495e-016 -3.434562e-016
      outer loop
         vertex 2.404194e-015 0.000000e+000 -7.000000e+000
         vertex 0.000000e+000 0.000000e+000 0.000000e+000
         vertex 1.803145e-015 3.000000e+000 -7.000000e+000
      endloop
   endfacet
   facet normal -1.000000e+000 -3.640075e-018 -2.591522e-016
      outer loop
         vertex 1.803145e-015 3.000000e+000 -7.000000e+000
         vertex 0.000000e+000 0.000000e+000 0.000000e+000
         vertex 1.692123e-015 3.350000e+001 -7.000000e+000
      endloop
   endfacet
   facet normal -1.000000e+000 0.000000e+000 -2.417318e-016
      outer loop
         vertex 1.692123e-015 3.350000e+001 -7.000000e+000
         vertex 0.000000e+000 0.000000e+000 0.000000e+000
         vertex 0.000000e+000 8.800000e+001 0.000000e+000
      endloop
   endfacet
   facet normal -1.000000e+000 0.000000e+000 -2.417318e-016
      outer loop
         vertex 1.692123e-015 3.350000e+001 -7.000000e+000
         vertex 0.000000e+000 8.800000e+001 0.000000e+000
         vertex 1.692123e-015 3.650000e+001 -7.000000e+000
      endloop
   endfacet
   facet normal -1.000000e+000 3.640075e-018 -2.685124e-016
      outer loop
         vertex 1.692123e-015 3.650000e+001 -7.000000e+000
         vertex 0.000000e+000 8.800000e+001 0.000000e+000
         vertex 1.803145e-015 6.700000e+001 -7.000000e+000
      endloop
   endfacet
   facet normal -1.000000e+000 0.000000e+000 -2.575922e-016
      outer loop
         vertex 1.803145e-015 6.700000e+001 -7.000000e+000
         vertex 0.000000e+000 8.800000e+001 0.000000e+000
         vertex 1.803145e-015 7.000000e+001 -7.000000e+000
      endloop
   endfacet
   facet normal -1.000000e+000 -1.001747e-016 -0.000000e+000
      outer loop
         vertex 1.803145e-015 7.000000e+001 -7.000000e+000
         vertex 0.000000e+000 8.800000e+001 0.000000e+000
         vertex 0.000000e+000 8.800000e+001 -7.000000e+000
      endloop
   endfacet
   facet normal 0.000000e+000 1.000000e+000 -0.000000e+000
      outer loop
         vertex 3.600000e+001 7.000000e+001 1.102146e-015
         vertex 3.600000e+001 7.000000e+001 -7.000000e+000
         vertex 7.000000e+000 7.000000e+001 2.143061e-016
      endloop
   endfacet
   facet normal 0.000000e+000 1.000000e+000 0.000000e+000
      outer loop
         vertex 7.000000e+000 7.000000e+001 2.143061e-016
         vertex 3.600000e+001 7.000000e+001 -7.000000e+000
         vertex 7.000000e+000 7.000000e+001 -7.000000e+000
      endloop
   endfacet
   facet normal 0.000000e+000 1.000000e+000 -0.000000e+000
      outer loop
         vertex 4.500000e+001 7.000000e+001 -7.000000e+000
         vertex 4.500000e+001 7.000000e+001 -5.700000e+001
         vertex 4.300000e+001 7.000000e+001 -7.000000e+000
      endloop
   endfacet
   facet normal 0.000000e+000 1.000000e+000 0.000000e+000
      outer loop
         vertex 4.300000e+001 7.000000e+001 -7.000000e+000
         vertex 4.500000e+001 7.000000e+001 -5.700000e+001
         vertex 3.600000e+001 7.000000e+001 -7.000000e+000
      endloop
   endfacet
   facet normal 0.000000e+000 1.000000e+000 0.000000e+000
      outer loop
         vertex 3.600000e+001 7.000000e+001 -7.000000e+000
         vertex 4.500000e+001 7.000000e+001 -5.700000e+001
         vertex 4.000000e+001 7.000000e+001 -5.700000e+001
      endloop
   endfacet
   facet normal 0.000000e+000 1.000000e+000 0.000000e+000
      outer loop
         vertex 3.600000e+001 7.000000e+001 -7.000000e+000
         vertex 4.000000e+001 7.000000e+001 -5.700000e+001
         vertex 7.000000e+000 7.000000e+001 -7.000000e+000
      endloop
   endfacet
   facet normal 0.000000e+000 1.000000e+000 0.000000e+000
      outer loop
         vertex 7.000000e+000 7.000000e+001 -7.000000e+000
         vertex 4.000000e+001 7.000000e+001 -5.700000e+001
         vertex 1.803145e-015 7.000000e+001 -7.000000e+000
      endloop
   endfacet
   facet normal -1.000000e+000 -0.000000e+000 0.000000e+000
      outer loop
         vertex 4.000000e+001 3.000000e+000 -7.000000e+000
         vertex 4.000000e+001 3.350000e+001 -7.000000e+000
         vertex 4.000000e+001 3.000000e+000 -5.700000e+001
      endloop
   endfacet
   facet normal -1.000000e+000 0.000000e+000 -0.000000e+000
      outer loop
         vertex 4.000000e+001 3.000000e+000 -5.700000e+001
         vertex 4.000000e+001 3.350000e+001 -7.000000e+000
         vertex 4.000000e+001 3.350000e+001 -5.700000e+001
      endloop
   endfacet
   facet normal 0.000000e+000 0.000000e+000 0.000000e+000
      outer loop
         vertex 4.000000e+001 3.000000e+000 -5.700000e+001
         vertex 4.000000e+001 3.350000e+001 -5.700000e+001
         vertex 4.000000e+001 0.000000e+000 -5.700000e+001
      endloop
   endfacet
   facet normal 0.000000e+000 0.000000e+000 -1.000000e+000
      outer loop
         vertex 4.000000e+001 0.000000e+000 -5.700000e+001
         vertex 4.000000e+001 3.350000e+001 -5.700000e+001
         vertex 4.500000e+001 0.000000e+000 -5.700000e+001
      endloop
   endfacet
   facet normal -0.000000e+000 0.000000e+000 -1.000000e+000
      outer loop
         vertex 4.000000e+001 7.000000e+001 -5.700000e+001
         vertex 4.500000e+001 7.000000e+001 -5.700000e+001
         vertex 4.000000e+001 6.700000e+001 -5.700000e+001
      endloop
   endfacet
   facet normal 0.000000e+000 -0.000000e+000 -1.000000e+000
      outer loop
         vertex 4.000000e+001 6.700000e+001 -5.700000e+001
         vertex 4.500000e+001 7.000000e+001 -5.700000e+001
         vertex 4.500000e+001 0.000000e+000 -5.700000e+001
      endloop
   endfacet
   facet normal 0.000000e+000 0.000000e+000 -1.000000e+000
      outer loop
         vertex 4.000000e+001 6.700000e+001 -5.700000e+001
         vertex 4.500000e+001 0.000000e+000 -5.700000e+001
         vertex 4.000000e+001 3.350000e+001 -5.700000e+001
      endloop
   endfacet
   facet normal 0.000000e+000 0.000000e+000 0.000000e+000
      outer loop
         vertex 4.000000e+001 6.700000e+001 -5.700000e+001
         vertex 4.000000e+001 3.350000e+001 -5.700000e+001
         vertex 4.000000e+001 3.650000e+001 -5.700000e+001
      endloop
   endfacet
   facet normal -1.000000e+000 0.000000e+000 0.000000e+000
      outer loop
         vertex 4.000000e+001 6.700000e+001 -5.700000e+001
         vertex 4.000000e+001 3.650000e+001 -5.700000e+001
         vertex 4.000000e+001 6.700000e+001 -7.000000e+000
      endloop
   endfacet
   facet normal -1.000000e+000 0.000000e+000 0.000000e+000
      outer loop
         vertex 4.000000e+001 6.700000e+001 -7.000000e+000
         vertex 4.000000e+001 3.650000e+001 -5.700000e+001
         vertex 4.000000e+001 3.650000e+001 -7.000000e+000
      endloop
   endfacet
   facet normal -0.000000e+000 0.000000e+000 1.000000e+000
      outer loop
         vertex 4.500000e+001 7.000000e+001 -7.000000e+000
         vertex 4.300000e+001 7.000000e+001 -7.000000e+000
         vertex 4.500000e+001 0.000000e+000 -7.000000e+000
      endloop
   endfacet
   facet normal 0.000000e+000 0.000000e+000 1.000000e+000
      outer loop
         vertex 4.500000e+001 0.000000e+000 -7.000000e+000
         vertex 4.300000e+001 7.000000e+001 -7.000000e+000
         vertex 4.300000e+001 0.000000e+000 -7.000000e+000
      endloop
   endfacet
   facet normal 1.000000e+000 -0.000000e+000 0.000000e+000
      outer loop
         vertex 4.500000e+001 7.000000e+001 -7.000000e+000
         vertex 4.500000e+001 0.000000e+000 -7.000000e+000
         vertex 4.500000e+001 7.000000e+001 -5.700000e+001
      endloop
   endfacet
   facet normal 1.000000e+000 0.000000e+000 0.000000e+000
      outer loop
         vertex 4.500000e+001 7.000000e+001 -5.700000e+001
         vertex 4.500000e+001 0.000000e+000 -7.000000e+000
         vertex 4.500000e+001 0.000000e+000 -5.700000e+001
      endloop
   endfacet
   facet normal 0.000000e+000 1.000000e+000 -0.000000e+000
      outer loop
         vertex 4.000000e+001 3.000000e+000 -7.000000e+000
         vertex 4.000000e+001 3.000000e+000 -5.700000e+001
         vertex 3.600000e+001 3.000000e+000 -7.000000e+000
      endloop
   endfacet
   facet normal 0.000000e+000 1.000000e+000 0.000000e+000
      outer loop
         vertex 3.600000e+001 3.000000e+000 -7.000000e+000
         vertex 4.000000e+001 3.000000e+000 -5.700000e+001
         vertex 7.000000e+000 3.000000e+000 2.143061e-016
      endloop
   endfacet
   facet normal -0.000000e+000 1.000000e+000 0.000000e+000
      outer loop
         vertex 3.600000e+001 3.000000e+000 -7.000000e+000
         vertex 7.000000e+000 3.000000e+000 2.143061e-016
         vertex 3.600000e+001 3.000000e+000 1.102146e-015
      endloop
   endfacet
   facet normal 0.000000e+000 1.000000e+000 0.000000e+000
      outer loop
         vertex 7.000000e+000 3.000000e+000 2.143061e-016
         vertex 4.000000e+001 3.000000e+000 -5.700000e+001
         vertex 7.000000e+000 3.000000e+000 -7.000000e+000
      endloop
   endfacet
   facet normal 0.000000e+000 1.000000e+000 0.000000e+000
      outer loop
         vertex 7.000000e+000 3.000000e+000 -7.000000e+000
         vertex 4.000000e+001 3.000000e+000 -5.700000e+001
         vertex 1.803145e-015 3.000000e+000 -7.000000e+000
      endloop
   endfacet
   facet normal -7.808688e-001 0.000000e+000 -6.246950e-001
      outer loop
         vertex 1.803145e-015 3.000000e+000 -7.000000e+000
         vertex 4.000000e+001 3.000000e+000 -5.700000e+001
         vertex 2.404194e-015 0.000000e+000 -7.000000e+000
      endloop
   endfacet
   facet normal -7.808688e-001 -0.000000e+000 -6.246950e-001
      outer loop
         vertex 2.404194e-015 0.000000e+000 -7.000000e+000
         vertex 4.000000e+001 3.000000e+000 -5.700000e+001
         vertex 4.000000e+001 0.000000e+000 -5.700000e+001
      endloop
   endfacet
   facet normal -7.808688e-001 0.000000e+000 -6.246950e-001
      outer loop
         vertex 4.000000e+001 3.350000e+001 -5.700000e+001
         vertex 1.692123e-015 3.350000e+001 -7.000000e+000
         vertex 4.000000e+001 3.650000e+001 -5.700000e+001
      endloop
   endfacet
   facet normal -7.808688e-001 0.000000e+000 -6.246950e-001
      outer loop
         vertex 4.000000e+001 3.650000e+001 -5.700000e+001
         vertex 1.692123e-015 3.350000e+001 -7.000000e+000
         vertex 1.692123e-015 3.650000e+001 -7.000000e+000
      endloop
   endfacet
   facet normal 0.000000e+000 -1.000000e+000 0.000000e+000
      outer loop
         vertex 3.600000e+001 3.350000e+001 1.250175e-015
         vertex 7.000000e+000 3.350000e+001 2.143061e-016
         vertex 3.600000e+001 3.350000e+001 -7.000000e+000
      endloop
   endfacet
   facet normal 0.000000e+000 -1.000000e+000 0.000000e+000
      outer loop
         vertex 3.600000e+001 3.350000e+001 -7.000000e+000
         vertex 7.000000e+000 3.350000e+001 2.143061e-016
         vertex 7.000000e+000 3.350000e+001 -7.000000e+000
      endloop
   endfacet
   facet normal 0.000000e+000 -1.000000e+000 0.000000e+000
      outer loop
         vertex 3.600000e+001 3.350000e+001 -7.000000e+000
         vertex 7.000000e+000 3.350000e+001 -7.000000e+000
         vertex 4.000000e+001 3.350000e+001 -5.700000e+001
      endloop
   endfacet
   facet normal -0.000000e+000 -1.000000e+000 -0.000000e+000
      outer loop
         vertex 4.000000e+001 3.350000e+001 -5.700000e+001
         vertex 7.000000e+000 3.350000e+001 -7.000000e+000
         vertex 1.692123e-015 3.350000e+001 -7.000000e+000
      endloop
   endfacet
   facet normal -0.000000e+000 -1.000000e+000 -0.000000e+000
      outer loop
         vertex 4.000000e+001 3.350000e+001 -5.700000e+001
         vertex 4.000000e+001 3.350000e+001 -7.000000e+000
         vertex 3.600000e+001 3.350000e+001 -7.000000e+000
      endloop
   endfacet
   facet normal -7.808688e-001 0.000000e+000 -6.246950e-001
      outer loop
         vertex 4.000000e+001 6.700000e+001 -5.700000e+001
         vertex 1.803145e-015 6.700000e+001 -7.000000e+000
         vertex 4.000000e+001 7.000000e+001 -5.700000e+001
      endloop
   endfacet
   facet normal -7.808688e-001 0.000000e+000 -6.246950e-001
      outer loop
         vertex 4.000000e+001 7.000000e+001 -5.700000e+001
         vertex 1.803145e-015 6.700000e+001 -7.000000e+000
         vertex 1.803145e-015 7.000000e+001 -7.000000e+000
      endloop
   endfacet
   facet normal 0.000000e+000 1.000000e+000 0.000000e+000
      outer loop
         vertex 1.692123e-015 3.650000e+001 -7.000000e+000
         vertex 7.000000e+000 3.650000e+001 -7.000000e+000
         vertex 4.000000e+001 3.650000e+001 -5.700000e+001
      endloop
   endfacet
   facet normal -0.000000e+000 1.000000e+000 0.000000e+000
      outer loop
         vertex 4.000000e+001 3.650000e+001 -5.700000e+001
         vertex 7.000000e+000 3.650000e+001 -7.000000e+000
         vertex 7.000000e+000 3.650000e+001 2.143061e-016
      endloop
   endfacet
   facet normal 0.000000e+000 1.000000e+000 0.000000e+000
      outer loop
         vertex 4.000000e+001 3.650000e+001 -5.700000e+001
         vertex 7.000000e+000 3.650000e+001 2.143061e-016
         vertex 3.600000e+001 3.650000e+001 -7.000000e+000
      endloop
   endfacet
   facet normal -0.000000e+000 1.000000e+000 0.000000e+000
      outer loop
         vertex 4.000000e+001 3.650000e+001 -5.700000e+001
         vertex 3.600000e+001 3.650000e+001 -7.000000e+000
         vertex 4.000000e+001 3.650000e+001 -7.000000e+000
      endloop
   endfacet
   facet normal 0.000000e+000 1.000000e+000 0.000000e+000
      outer loop
         vertex 7.000000e+000 3.650000e+001 2.143061e-016
         vertex 3.600000e+001 3.650000e+001 1.250175e-015
         vertex 3.600000e+001 3.650000e+001 -7.000000e+000
      endloop
   endfacet
   facet normal 0.000000e+000 -1.000000e+000 0.000000e+000
      outer loop
         vertex 3.600000e+001 6.700000e+001 1.102146e-015
         vertex 7.000000e+000 6.700000e+001 2.143061e-016
         vertex 3.600000e+001 6.700000e+001 -7.000000e+000
      endloop
   endfacet
   facet normal 0.000000e+000 -1.000000e+000 0.000000e+000
      outer loop
         vertex 3.600000e+001 6.700000e+001 -7.000000e+000
         vertex 7.000000e+000 6.700000e+001 2.143061e-016
         vertex 7.000000e+000 6.700000e+001 -7.000000e+000
      endloop
   endfacet
   facet normal 0.000000e+000 -1.000000e+000 0.000000e+000
      outer loop
         vertex 3.600000e+001 6.700000e+001 -7.000000e+000
         vertex 7.000000e+000 6.700000e+001 -7.000000e+000
         vertex 4.000000e+001 6.700000e+001 -5.700000e+001
      endloop
   endfacet
   facet normal -0.000000e+000 -1.000000e+000 -0.000000e+000
      outer loop
         vertex 4.000000e+001 6.700000e+001 -5.700000e+001
         vertex 7.000000e+000 6.700000e+001 -7.000000e+000
         vertex 1.803145e-015 6.700000e+001 -7.000000e+000
      endloop
   endfacet
   facet normal -0.000000e+000 -1.000000e+000 -0.000000e+000
      outer loop
         vertex 4.000000e+001 6.700000e+001 -5.700000e+001
         vertex 4.000000e+001 6.700000e+001 -7.000000e+000
         vertex 3.600000e+001 6.700000e+001 -7.000000e+000
      endloop
   endfacet
endsolid
