solid 
   facet normal 0.000000e+000 0.000000e+000 -1.000000e+000
      outer loop
         vertex 1.470000e+002 9.400000e+001 -1.500000e+001
         vertex 1.000000e+000 9.400000e+001 -1.500000e+001
         vertex 9.184548e-017 9.700000e+001 -1.500000e+001
      endloop
   endfacet
   facet normal -0.000000e+000 0.000000e+000 -1.000000e+000
      outer loop
         vertex 9.184548e-017 9.700000e+001 -1.500000e+001
         vertex 1.000000e+000 9.400000e+001 -1.500000e+001
         vertex 9.184548e-017 3.000000e+000 -1.500000e+001
      endloop
   endfacet
   facet normal 0.000000e+000 -0.000000e+000 -1.000000e+000
      outer loop
         vertex 9.184548e-017 3.000000e+000 -1.500000e+001
         vertex 1.000000e+000 9.400000e+001 -1.500000e+001
         vertex 1.000000e+000 6.000000e+000 -1.500000e+001
      endloop
   endfacet
   facet normal 0.000000e+000 -0.000000e+000 -1.000000e+000
      outer loop
         vertex 9.184548e-017 3.000000e+000 -1.500000e+001
         vertex 1.000000e+000 6.000000e+000 -1.500000e+001
         vertex 1.490000e+002 3.000000e+000 -1.500000e+001
      endloop
   endfacet
   facet normal 0.000000e+000 0.000000e+000 -1.000000e+000
      outer loop
         vertex 1.490000e+002 3.000000e+000 -1.500000e+001
         vertex 1.000000e+000 6.000000e+000 -1.500000e+001
         vertex 1.470000e+002 6.000000e+000 -1.500000e+001
      endloop
   endfacet
   facet normal 0.000000e+000 0.000000e+000 -1.000000e+000
      outer loop
         vertex 1.490000e+002 3.000000e+000 -1.500000e+001
         vertex 1.470000e+002 6.000000e+000 -1.500000e+001
         vertex 1.490000e+002 9.700000e+001 -1.500000e+001
      endloop
   endfacet
   facet normal 0.000000e+000 0.000000e+000 -1.000000e+000
      outer loop
         vertex 1.490000e+002 9.700000e+001 -1.500000e+001
         vertex 1.470000e+002 6.000000e+000 -1.500000e+001
         vertex 1.470000e+002 9.400000e+001 -1.500000e+001
      endloop
   endfacet
   facet normal 0.000000e+000 0.000000e+000 -1.000000e+000
      outer loop
         vertex 1.490000e+002 9.700000e+001 -1.500000e+001
         vertex 1.470000e+002 9.400000e+001 -1.500000e+001
         vertex 9.184548e-017 9.700000e+001 -1.500000e+001
      endloop
   endfacet
   facet normal 0.000000e+000 -1.000000e+000 0.000000e+000
      outer loop
         vertex 9.184548e-017 3.000000e+000 0.000000e+000
         vertex 9.184548e-017 3.000000e+000 -1.500000e+001
         vertex 1.490000e+002 3.000000e+000 0.000000e+000
      endloop
   endfacet
   facet normal 0.000000e+000 -1.000000e+000 0.000000e+000
      outer loop
         vertex 1.490000e+002 3.000000e+000 0.000000e+000
         vertex 9.184548e-017 3.000000e+000 -1.500000e+001
         vertex 1.490000e+002 3.000000e+000 -1.500000e+001
      endloop
   endfacet
   facet normal 0.000000e+000 1.000000e+000 0.000000e+000
      outer loop
         vertex 9.000000e+001 9.700000e+001 0.000000e+000
         vertex 1.490000e+002 9.700000e+001 0.000000e+000
         vertex 9.000000e+001 9.700000e+001 -2.000000e+000
      endloop
   endfacet
   facet normal 0.000000e+000 1.000000e+000 0.000000e+000
      outer loop
         vertex 9.000000e+001 9.700000e+001 -2.000000e+000
         vertex 1.490000e+002 9.700000e+001 0.000000e+000
         vertex 1.490000e+002 9.700000e+001 -1.500000e+001
      endloop
   endfacet
   facet normal 0.000000e+000 1.000000e+000 0.000000e+000
      outer loop
         vertex 9.000000e+001 9.700000e+001 -2.000000e+000
         vertex 1.490000e+002 9.700000e+001 -1.500000e+001
         vertex 6.000000e+001 9.700000e+001 -2.000000e+000
      endloop
   endfacet
   facet normal 0.000000e+000 1.000000e+000 0.000000e+000
      outer loop
         vertex 6.000000e+001 9.700000e+001 -2.000000e+000
         vertex 1.490000e+002 9.700000e+001 -1.500000e+001
         vertex 9.184548e-017 9.700000e+001 -1.500000e+001
      endloop
   endfacet
   facet normal 0.000000e+000 1.000000e+000 0.000000e+000
      outer loop
         vertex 6.000000e+001 9.700000e+001 -2.000000e+000
         vertex 9.184548e-017 9.700000e+001 -1.500000e+001
         vertex 6.000000e+001 9.700000e+001 2.960595e-016
      endloop
   endfacet
   facet normal 0.000000e+000 1.000000e+000 0.000000e+000
      outer loop
         vertex 6.000000e+001 9.700000e+001 2.960595e-016
         vertex 9.184548e-017 9.700000e+001 -1.500000e+001
         vertex 9.184548e-017 9.700000e+001 0.000000e+000
      endloop
   endfacet
   facet normal 0.000000e+000 -0.000000e+000 1.000000e+000
      outer loop
         vertex 9.000000e+001 9.700000e+001 0.000000e+000
         vertex 1.420000e+002 9.300000e+001 0.000000e+000
         vertex 1.490000e+002 9.700000e+001 0.000000e+000
      endloop
   endfacet
   facet normal -0.000000e+000 0.000000e+000 1.000000e+000
      outer loop
         vertex 1.490000e+002 9.700000e+001 0.000000e+000
         vertex 1.420000e+002 9.300000e+001 0.000000e+000
         vertex 1.420000e+002 1.000000e+001 0.000000e+000
      endloop
   endfacet
   facet normal -0.000000e+000 0.000000e+000 1.000000e+000
      outer loop
         vertex 1.490000e+002 9.700000e+001 0.000000e+000
         vertex 1.420000e+002 1.000000e+001 0.000000e+000
         vertex 1.490000e+002 3.000000e+000 0.000000e+000
      endloop
   endfacet
   facet normal 0.000000e+000 0.000000e+000 1.000000e+000
      outer loop
         vertex 1.490000e+002 3.000000e+000 0.000000e+000
         vertex 1.420000e+002 1.000000e+001 0.000000e+000
         vertex 2.000000e+000 1.000000e+001 0.000000e+000
      endloop
   endfacet
   facet normal 0.000000e+000 0.000000e+000 1.000000e+000
      outer loop
         vertex 1.490000e+002 3.000000e+000 0.000000e+000
         vertex 2.000000e+000 1.000000e+001 0.000000e+000
         vertex 9.184548e-017 3.000000e+000 0.000000e+000
      endloop
   endfacet
   facet normal 0.000000e+000 0.000000e+000 1.000000e+000
      outer loop
         vertex 9.184548e-017 3.000000e+000 0.000000e+000
         vertex 2.000000e+000 1.000000e+001 0.000000e+000
         vertex 9.184548e-017 9.700000e+001 0.000000e+000
      endloop
   endfacet
   facet normal 0.000000e+000 -0.000000e+000 1.000000e+000
      outer loop
         vertex 9.184548e-017 9.700000e+001 0.000000e+000
         vertex 2.000000e+000 1.000000e+001 0.000000e+000
         vertex 2.000000e+000 9.300000e+001 0.000000e+000
      endloop
   endfacet
   facet normal -4.934325e-018 -2.467162e-018 1.000000e+000
      outer loop
         vertex 9.184548e-017 9.700000e+001 0.000000e+000
         vertex 2.000000e+000 9.300000e+001 0.000000e+000
         vertex 6.000000e+001 9.700000e+001 2.960595e-016
      endloop
   endfacet
   facet normal 0.000000e+000 -7.401487e-017 1.000000e+000
      outer loop
         vertex 6.000000e+001 9.700000e+001 2.960595e-016
         vertex 2.000000e+000 9.300000e+001 0.000000e+000
         vertex 1.420000e+002 9.300000e+001 0.000000e+000
      endloop
   endfacet
   facet normal 9.868649e-018 1.282924e-016 1.000000e+000
      outer loop
         vertex 6.000000e+001 9.700000e+001 2.960595e-016
         vertex 1.420000e+002 9.300000e+001 0.000000e+000
         vertex 9.000000e+001 9.700000e+001 0.000000e+000
      endloop
   endfacet
   facet normal 9.868649e-018 5.921190e-017 1.000000e+000
      outer loop
         vertex 6.000000e+001 9.700000e+001 2.960595e-016
         vertex 9.000000e+001 9.700000e+001 0.000000e+000
         vertex 6.000000e+001 1.020000e+002 0.000000e+000
      endloop
   endfacet
   facet normal 0.000000e+000 -0.000000e+000 1.000000e+000
      outer loop
         vertex 6.000000e+001 1.020000e+002 0.000000e+000
         vertex 9.000000e+001 9.700000e+001 0.000000e+000
         vertex 9.000000e+001 1.020000e+002 0.000000e+000
      endloop
   endfacet
   facet normal 1.000000e+000 0.000000e+000 0.000000e+000
      outer loop
         vertex 1.490000e+002 3.000000e+000 0.000000e+000
         vertex 1.490000e+002 3.000000e+000 -1.500000e+001
         vertex 1.490000e+002 9.700000e+001 0.000000e+000
      endloop
   endfacet
   facet normal 1.000000e+000 0.000000e+000 0.000000e+000
      outer loop
         vertex 1.490000e+002 9.700000e+001 0.000000e+000
         vertex 1.490000e+002 3.000000e+000 -1.500000e+001
         vertex 1.490000e+002 9.700000e+001 -1.500000e+001
      endloop
   endfacet
   facet normal -1.000000e+000 0.000000e+000 0.000000e+000
      outer loop
         vertex 9.184548e-017 9.700000e+001 0.000000e+000
         vertex 9.184548e-017 9.700000e+001 -1.500000e+001
         vertex 9.184548e-017 3.000000e+000 0.000000e+000
      endloop
   endfacet
   facet normal -1.000000e+000 0.000000e+000 0.000000e+000
      outer loop
         vertex 9.184548e-017 3.000000e+000 0.000000e+000
         vertex 9.184548e-017 9.700000e+001 -1.500000e+001
         vertex 9.184548e-017 3.000000e+000 -1.500000e+001
      endloop
   endfacet
   facet normal 0.000000e+000 1.000000e+000 -0.000000e+000
      outer loop
         vertex 1.420000e+002 1.000000e+001 0.000000e+000
         vertex 1.420000e+002 1.000000e+001 -1.000000e+000
         vertex 2.000000e+000 1.000000e+001 0.000000e+000
      endloop
   endfacet
   facet normal 0.000000e+000 1.000000e+000 0.000000e+000
      outer loop
         vertex 2.000000e+000 1.000000e+001 0.000000e+000
         vertex 1.420000e+002 1.000000e+001 -1.000000e+000
         vertex 2.000000e+000 1.000000e+001 -1.000000e+000
      endloop
   endfacet
   facet normal 0.000000e+000 -1.000000e+000 0.000000e+000
      outer loop
         vertex 2.000000e+000 9.300000e+001 0.000000e+000
         vertex 2.000000e+000 9.300000e+001 -1.000000e+000
         vertex 1.420000e+002 9.300000e+001 0.000000e+000
      endloop
   endfacet
   facet normal 0.000000e+000 -1.000000e+000 0.000000e+000
      outer loop
         vertex 1.420000e+002 9.300000e+001 0.000000e+000
         vertex 2.000000e+000 9.300000e+001 -1.000000e+000
         vertex 1.420000e+002 9.300000e+001 -1.000000e+000
      endloop
   endfacet
   facet normal -1.000000e+000 0.000000e+000 0.000000e+000
      outer loop
         vertex 1.420000e+002 9.300000e+001 0.000000e+000
         vertex 1.420000e+002 9.300000e+001 -1.000000e+000
         vertex 1.420000e+002 1.000000e+001 0.000000e+000
      endloop
   endfacet
   facet normal -1.000000e+000 0.000000e+000 0.000000e+000
      outer loop
         vertex 1.420000e+002 1.000000e+001 0.000000e+000
         vertex 1.420000e+002 9.300000e+001 -1.000000e+000
         vertex 1.420000e+002 1.000000e+001 -1.000000e+000
      endloop
   endfacet
   facet normal 1.000000e+000 0.000000e+000 0.000000e+000
      outer loop
         vertex 2.000000e+000 1.000000e+001 0.000000e+000
         vertex 2.000000e+000 1.000000e+001 -1.000000e+000
         vertex 2.000000e+000 9.300000e+001 0.000000e+000
      endloop
   endfacet
   facet normal 1.000000e+000 0.000000e+000 0.000000e+000
      outer loop
         vertex 2.000000e+000 9.300000e+001 0.000000e+000
         vertex 2.000000e+000 1.000000e+001 -1.000000e+000
         vertex 2.000000e+000 9.300000e+001 -1.000000e+000
      endloop
   endfacet
   facet normal 0.000000e+000 0.000000e+000 -1.000000e+000
      outer loop
         vertex 1.420000e+002 9.300000e+001 -1.000000e+000
         vertex 2.000000e+000 9.300000e+001 -1.000000e+000
         vertex 1.000000e+000 9.400000e+001 -1.000000e+000
      endloop
   endfacet
   facet normal -0.000000e+000 0.000000e+000 -1.000000e+000
      outer loop
         vertex 1.000000e+000 9.400000e+001 -1.000000e+000
         vertex 2.000000e+000 9.300000e+001 -1.000000e+000
         vertex 1.000000e+000 6.000000e+000 -1.000000e+000
      endloop
   endfacet
   facet normal 0.000000e+000 -0.000000e+000 -1.000000e+000
      outer loop
         vertex 1.000000e+000 6.000000e+000 -1.000000e+000
         vertex 2.000000e+000 9.300000e+001 -1.000000e+000
         vertex 2.000000e+000 1.000000e+001 -1.000000e+000
      endloop
   endfacet
   facet normal 0.000000e+000 -0.000000e+000 -1.000000e+000
      outer loop
         vertex 1.000000e+000 6.000000e+000 -1.000000e+000
         vertex 2.000000e+000 1.000000e+001 -1.000000e+000
         vertex 1.470000e+002 6.000000e+000 -1.000000e+000
      endloop
   endfacet
   facet normal 0.000000e+000 0.000000e+000 -1.000000e+000
      outer loop
         vertex 1.470000e+002 6.000000e+000 -1.000000e+000
         vertex 2.000000e+000 1.000000e+001 -1.000000e+000
         vertex 1.420000e+002 1.000000e+001 -1.000000e+000
      endloop
   endfacet
   facet normal 0.000000e+000 0.000000e+000 -1.000000e+000
      outer loop
         vertex 1.470000e+002 6.000000e+000 -1.000000e+000
         vertex 1.420000e+002 1.000000e+001 -1.000000e+000
         vertex 1.470000e+002 9.400000e+001 -1.000000e+000
      endloop
   endfacet
   facet normal 0.000000e+000 0.000000e+000 -1.000000e+000
      outer loop
         vertex 1.470000e+002 9.400000e+001 -1.000000e+000
         vertex 1.420000e+002 1.000000e+001 -1.000000e+000
         vertex 1.420000e+002 9.300000e+001 -1.000000e+000
      endloop
   endfacet
   facet normal 0.000000e+000 0.000000e+000 -1.000000e+000
      outer loop
         vertex 1.470000e+002 9.400000e+001 -1.000000e+000
         vertex 1.420000e+002 9.300000e+001 -1.000000e+000
         vertex 1.000000e+000 9.400000e+001 -1.000000e+000
      endloop
   endfacet
   facet normal 0.000000e+000 1.000000e+000 -0.000000e+000
      outer loop
         vertex 1.470000e+002 6.000000e+000 -1.000000e+000
         vertex 1.470000e+002 6.000000e+000 -1.500000e+001
         vertex 1.000000e+000 6.000000e+000 -1.000000e+000
      endloop
   endfacet
   facet normal 0.000000e+000 1.000000e+000 0.000000e+000
      outer loop
         vertex 1.000000e+000 6.000000e+000 -1.000000e+000
         vertex 1.470000e+002 6.000000e+000 -1.500000e+001
         vertex 1.000000e+000 6.000000e+000 -1.500000e+001
      endloop
   endfacet
   facet normal 1.000000e+000 0.000000e+000 0.000000e+000
      outer loop
         vertex 1.000000e+000 6.000000e+000 -1.000000e+000
         vertex 1.000000e+000 6.000000e+000 -1.500000e+001
         vertex 1.000000e+000 9.400000e+001 -1.000000e+000
      endloop
   endfacet
   facet normal 1.000000e+000 0.000000e+000 0.000000e+000
      outer loop
         vertex 1.000000e+000 9.400000e+001 -1.000000e+000
         vertex 1.000000e+000 6.000000e+000 -1.500000e+001
         vertex 1.000000e+000 9.400000e+001 -1.500000e+001
      endloop
   endfacet
   facet normal -1.000000e+000 0.000000e+000 0.000000e+000
      outer loop
         vertex 1.470000e+002 9.400000e+001 -1.000000e+000
         vertex 1.470000e+002 9.400000e+001 -1.500000e+001
         vertex 1.470000e+002 6.000000e+000 -1.000000e+000
      endloop
   endfacet
   facet normal -1.000000e+000 0.000000e+000 0.000000e+000
      outer loop
         vertex 1.470000e+002 6.000000e+000 -1.000000e+000
         vertex 1.470000e+002 9.400000e+001 -1.500000e+001
         vertex 1.470000e+002 6.000000e+000 -1.500000e+001
      endloop
   endfacet
   facet normal 0.000000e+000 -1.000000e+000 0.000000e+000
      outer loop
         vertex 1.000000e+000 9.400000e+001 -1.000000e+000
         vertex 1.000000e+000 9.400000e+001 -1.500000e+001
         vertex 1.470000e+002 9.400000e+001 -1.000000e+000
      endloop
   endfacet
   facet normal 0.000000e+000 -1.000000e+000 0.000000e+000
      outer loop
         vertex 1.470000e+002 9.400000e+001 -1.000000e+000
         vertex 1.000000e+000 9.400000e+001 -1.500000e+001
         vertex 1.470000e+002 9.400000e+001 -1.500000e+001
      endloop
   endfacet
   facet normal 1.000000e+000 -0.000000e+000 0.000000e+000
      outer loop
         vertex 9.000000e+001 1.020000e+002 0.000000e+000
         vertex 9.000000e+001 9.700000e+001 0.000000e+000
         vertex 9.000000e+001 1.020000e+002 -2.000000e+000
      endloop
   endfacet
   facet normal 1.000000e+000 0.000000e+000 0.000000e+000
      outer loop
         vertex 9.000000e+001 1.020000e+002 -2.000000e+000
         vertex 9.000000e+001 9.700000e+001 0.000000e+000
         vertex 9.000000e+001 9.700000e+001 -2.000000e+000
      endloop
   endfacet
   facet normal 0.000000e+000 1.000000e+000 -0.000000e+000
      outer loop
         vertex 9.000000e+001 1.020000e+002 0.000000e+000
         vertex 9.000000e+001 1.020000e+002 -2.000000e+000
         vertex 6.000000e+001 1.020000e+002 0.000000e+000
      endloop
   endfacet
   facet normal 0.000000e+000 1.000000e+000 0.000000e+000
      outer loop
         vertex 6.000000e+001 1.020000e+002 0.000000e+000
         vertex 9.000000e+001 1.020000e+002 -2.000000e+000
         vertex 6.000000e+001 1.020000e+002 -2.000000e+000
      endloop
   endfacet
   facet normal 0.000000e+000 0.000000e+000 -1.000000e+000
      outer loop
         vertex 9.000000e+001 1.020000e+002 -2.000000e+000
         vertex 9.000000e+001 9.700000e+001 -2.000000e+000
         vertex 6.000000e+001 1.020000e+002 -2.000000e+000
      endloop
   endfacet
   facet normal 0.000000e+000 0.000000e+000 -1.000000e+000
      outer loop
         vertex 6.000000e+001 1.020000e+002 -2.000000e+000
         vertex 9.000000e+001 9.700000e+001 -2.000000e+000
         vertex 6.000000e+001 9.700000e+001 -2.000000e+000
      endloop
   endfacet
   facet normal -1.000000e+000 0.000000e+000 0.000000e+000
      outer loop
         vertex 6.000000e+001 1.020000e+002 -2.000000e+000
         vertex 6.000000e+001 9.700000e+001 -2.000000e+000
         vertex 6.000000e+001 1.020000e+002 0.000000e+000
      endloop
   endfacet
   facet normal -1.000000e+000 0.000000e+000 0.000000e+000
      outer loop
         vertex 6.000000e+001 1.020000e+002 0.000000e+000
         vertex 6.000000e+001 9.700000e+001 -2.000000e+000
         vertex 6.000000e+001 9.700000e+001 2.960595e-016
      endloop
   endfacet
endsolid
